<svg width="24" height="15" viewBox="0 0 24 15" fill="none" xmlns="http://www.w3.org/2000/svg">
<path d="M1.24801 12.046V2.82181C1.24801 2.68056 1.06695 2.613 0.966725 2.7174C0.572275 3.1258 0.116395 3.90574 0.0193992 4.0777C0.00646639 4.0992 0 4.12376 0 4.14833C0 6.71539 0 10.0563 0 10.4186C0 10.4401 0.00323319 10.4616 0.016166 10.48C0.106695 10.6612 0.588441 11.6254 0.953792 12.132C1.04432 12.2579 1.24801 12.1965 1.24801 12.046Z" fill="#FF3C00"/>
<path d="M22.752 2.8218C22.752 2.68055 22.933 2.613 23.0333 2.7174C23.4277 3.1258 23.8836 3.90574 23.9806 4.0777C23.9935 4.0992 24 4.12376 24 4.14832V10.4186C24 10.4401 23.9968 10.4616 23.9838 10.4831C23.8933 10.6642 23.4116 11.6284 23.0462 12.1351C22.9557 12.261 22.752 12.1996 22.752 12.0491V2.8218Z" fill="#FF3C00"/>
<path d="M18.0315 14.7144C16.9743 15 16.0463 14.9846 15.4159 14.9202C15.335 14.911 15.2736 14.8465 15.2736 14.7666V14.5179C15.2736 14.4074 15.1572 14.3306 15.0505 14.3767C14.4168 14.6438 13.3434 14.9969 11.9951 15C10.6469 15 9.57672 14.6438 8.94301 14.3767C8.83632 14.3306 8.71992 14.4074 8.71992 14.5179V14.7666C8.71992 14.8434 8.66173 14.911 8.57766 14.9202C7.94719 14.9846 7.01926 15 5.96524 14.7144C4.03503 14.1893 2.88724 12.9918 2.43783 12.4575C2.4152 12.4299 2.4055 12.3992 2.4055 12.3623V2.613C2.4055 2.57615 2.41843 2.54545 2.44106 2.51474C2.86461 2.02651 3.65674 1.24656 4.89506 0.678493C6.42436 -0.0185452 7.83403 -0.0338984 8.5712 0.018302C8.65526 0.0244436 8.72316 0.0919981 8.72316 0.171835V0.491182C8.72316 0.601726 8.83955 0.678493 8.94625 0.632433C9.52499 0.389852 10.3398 0.125776 11.3453 0.0459394C11.5684 0.0275154 11.7882 0.0213737 11.9984 0.0213737C12.2085 0.0213737 12.4284 0.0275154 12.6515 0.0459394C13.6538 0.125776 14.475 0.389852 15.0538 0.632433C15.1604 0.675422 15.2768 0.601726 15.2768 0.491182V0.171835C15.2768 0.0919981 15.3415 0.0244436 15.4288 0.018302C16.1627 -0.0338984 17.5756 -0.0185452 19.1017 0.678493C20.3433 1.24656 21.1354 2.02344 21.5589 2.51474C21.5816 2.54238 21.5945 2.57615 21.5945 2.613V12.3623C21.5945 12.3961 21.5848 12.4299 21.5622 12.4575C21.1095 12.9918 19.9617 14.1893 18.0315 14.7144ZM15.2768 3.1043C15.2768 3.23327 15.1152 3.30697 15.0117 3.22099C14.1485 2.50246 13.0718 2.12477 11.9984 2.11556C10.925 2.12784 9.84831 2.50246 8.98828 3.22099C8.88482 3.30697 8.72316 3.23634 8.72316 3.1043V2.23224C8.72316 2.14933 8.65526 2.07871 8.56796 2.07871C7.70147 2.06336 3.51771 2.26602 3.51771 7.55368C3.51771 12.4207 7.66913 12.8137 8.55826 12.8413C8.64879 12.8413 8.72316 12.7738 8.72316 12.6878L8.71669 11.9539C8.71669 11.8219 8.88158 11.7482 8.98505 11.8403C9.83537 12.5895 10.9185 12.9427 11.9984 12.9242C13.0815 12.9396 14.1614 12.5865 15.015 11.8372C15.1184 11.7482 15.2833 11.8188 15.2833 11.9508L15.2768 12.6847C15.2768 12.7707 15.3512 12.8413 15.4417 12.8383C16.3309 12.8106 20.4823 12.4145 20.4823 7.5506C20.4823 2.26295 16.3018 2.06028 15.432 2.07564C15.3447 2.07564 15.2768 2.14626 15.2768 2.22917V3.1043Z" fill="#FF3C00"/>
</svg>
