<svg width="42" height="40" viewBox="0 0 42 40" fill="none" xmlns="http://www.w3.org/2000/svg">
<path d="M36.5558 29.341C39.4124 29.341 41.7282 27.0241 41.7282 24.1661C41.7282 21.308 39.4124 18.9911 36.5558 18.9911C33.6992 18.9911 31.3835 21.308 31.3835 24.1661C31.3835 27.0241 33.6992 29.341 36.5558 29.341Z" fill="url(#paint0_linear_434_200)"/>
<path d="M6.04835 29.341C8.90497 29.341 11.2207 27.0241 11.2207 24.1661C11.2207 21.308 8.90497 18.9911 6.04835 18.9911C3.19172 18.9911 0.875977 21.308 0.875977 24.1661C0.875977 27.0241 3.19172 29.341 6.04835 29.341Z" fill="url(#paint1_linear_434_200)"/>
<path d="M21.0609 39.3415C29.4379 39.3415 36.2288 32.5472 36.2288 24.1661C36.2288 15.7849 29.4379 8.99063 21.0609 8.99063C12.684 8.99063 5.89309 15.7849 5.89309 24.1661C5.89309 32.5472 12.684 39.3415 21.0609 39.3415Z" fill="url(#paint2_linear_434_200)"/>
<path d="M27.3421 7.16024C27.3421 10.6324 24.5314 13.4445 21.061 13.4445C17.5906 13.4445 14.7798 10.6324 14.7798 7.16024C14.7798 3.68809 17.5906 0.875977 21.061 0.875977C24.5314 0.875977 27.3421 3.68809 27.3421 7.16024Z" fill="#761C00"/>
<path d="M18.971 13.023C18.971 16.4951 16.1603 19.3072 12.6899 19.3072C9.21943 19.3072 6.40872 16.4951 6.40872 13.023C6.40872 9.55081 9.21943 6.73869 12.6899 6.73869C16.1603 6.73869 18.971 9.55081 18.971 13.023Z" fill="#761C00"/>
<path d="M35.7132 13.023C35.7132 16.4951 32.9025 19.3072 29.4321 19.3072C25.9617 19.3072 23.151 16.4951 23.151 13.023C23.151 9.55081 25.9617 6.73869 29.4321 6.73869C32.9025 6.73869 35.7132 9.55081 35.7132 13.023Z" fill="#761C00"/>
<path d="M27.3421 13.023C27.3421 16.4951 24.5314 19.3072 21.061 19.3072C17.5906 19.3072 14.7798 16.4951 14.7798 13.023C14.7798 9.55081 17.5906 6.73869 21.061 6.73869C24.5314 6.73869 27.3421 9.55081 27.3421 13.023Z" fill="#761C00"/>
<path d="M19.5749 24.8871C19.5749 24.8871 19.5749 30.0621 14.2307 30.0621C8.88645 30.0621 8.88645 24.8871 8.88645 24.8871C8.88645 24.8871 8.88645 19.7122 14.2307 19.7122C19.5749 19.7122 19.5749 24.8871 19.5749 24.8871Z" fill="white"/>
<path d="M14.824 24.8538C14.2863 24.3435 13.7541 23.8388 13.2163 23.3285C13.8262 20.9601 15.7332 19.6068 17.5627 20.6384C18.422 21.121 19.1094 22.1415 19.3977 23.3784C20.1405 26.5289 18.4441 29.4907 16.2987 29.4907C14.9294 29.4907 13.6931 28.2816 13.2219 26.479C13.7541 25.9409 14.2918 25.3974 14.824 24.8594V24.8538Z" fill="#0F0F0F"/>
<path d="M33.7119 24.8871C33.7119 24.8871 33.7119 30.0621 28.3677 30.0621C23.0235 30.0621 23.0235 24.8871 23.0235 24.8871C23.0235 24.8871 23.0235 19.7122 28.3677 19.7122C33.7119 19.7122 33.7119 24.8871 33.7119 24.8871Z" fill="white"/>
<path d="M28.961 24.8538C28.4232 24.3435 27.891 23.8388 27.3533 23.3285C27.9631 20.9601 29.8702 19.6068 31.6996 20.6384C32.5589 21.121 33.2463 22.1415 33.5346 23.3784C34.2775 26.5289 32.5811 29.4907 30.4356 29.4907C29.0663 29.4907 27.83 28.2816 27.3588 26.479C27.891 25.9409 28.4288 25.3974 28.961 24.8594V24.8538Z" fill="#0F0F0F"/>
<path d="M21.2993 35.0373C24.1559 35.0373 26.4717 32.7204 26.4717 29.8623C26.4717 27.0043 24.1559 24.6874 21.2993 24.6874C18.4427 24.6874 16.1269 27.0043 16.1269 29.8623C16.1269 32.7204 18.4427 35.0373 21.2993 35.0373Z" fill="#761C00"/>
<path d="M31.1894 17.2495H25.5514C25.034 17.2495 24.6145 17.6691 24.6145 18.1868C24.6145 18.7045 25.034 19.1242 25.5514 19.1242H31.1894C31.7069 19.1242 32.1263 18.7045 32.1263 18.1868C32.1263 17.6691 31.7069 17.2495 31.1894 17.2495Z" fill="#0F0F0F"/>
<path d="M17.0529 17.2495H11.4149C10.8974 17.2495 10.478 17.6691 10.478 18.1868C10.478 18.7045 10.8974 19.1242 11.4149 19.1242H17.0529C17.5703 19.1242 17.9898 18.7045 17.9898 18.1868C17.9898 17.6691 17.5703 17.2495 17.0529 17.2495Z" fill="#0F0F0F"/>
<defs>
<linearGradient id="paint0_linear_434_200" x1="21.3021" y1="20.1293" x2="41.7282" y2="20.1293" gradientUnits="userSpaceOnUse">
<stop offset="0.865" stop-color="#FF3C00"/>
</linearGradient>
<linearGradient id="paint1_linear_434_200" x1="21.3021" y1="20.1293" x2="0.875977" y2="20.1293" gradientUnits="userSpaceOnUse">
<stop offset="0.558878" stop-color="#FF3C00"/>
</linearGradient>
<linearGradient id="paint2_linear_434_200" x1="21.3021" y1="0.875977" x2="21.3021" y2="39.3485" gradientUnits="userSpaceOnUse">
<stop stop-color="#761C00"/>
<stop offset="1" stop-color="#FF3C00"/>
</linearGradient>
</defs>
</svg>
