<svg width="32" height="29" viewBox="0 0 32 29" fill="none" xmlns="http://www.w3.org/2000/svg">
<circle cx="4.01717" cy="4.01717" r="4.01717" transform="matrix(-1 0 0 1 8.43262 13.9893)" fill="url(#paint0_linear_123_106)"/>
<circle cx="27.983" cy="18.0064" r="4.01717" fill="url(#paint1_linear_123_106)"/>
<circle cx="11.7837" cy="11.7837" r="11.7837" transform="matrix(-1 0 0 1 27.9824 5.15137)" fill="url(#paint2_linear_123_106)"/>
<path d="M10.7083 20.4166C14.8594 20.4166 14.8594 16.3994 14.8594 16.3994H6.55722C6.55722 16.3994 6.55722 20.4166 10.7083 20.4166Z" fill="white"/>
<path d="M10.7083 18.8097C13.2525 18.8097 13.2525 16.3994 13.2525 16.3994H8.16409C8.16409 16.3994 8.16409 18.8097 10.7083 18.8097Z" fill="black"/>
<path d="M21.6893 20.4166C25.8403 20.4166 25.8403 16.3994 25.8403 16.3994H17.5382C17.5382 16.3994 17.5382 20.4166 21.6893 20.4166Z" fill="white"/>
<path d="M21.6893 18.8097C24.2335 18.8097 24.2335 16.3994 24.2335 16.3994H19.145C19.145 16.3994 19.145 18.8097 21.6893 18.8097Z" fill="black"/>
<circle cx="4.01717" cy="4.01717" r="4.01717" transform="matrix(-1 0 0 1 20.2158 15.8633)" fill="#0D6000"/>
<path d="M6.5572 15.3281H14.3237" stroke="black" stroke-linecap="round"/>
<path d="M25.8403 15.3281H18.0737" stroke="black" stroke-linecap="round"/>
<path d="M12.1817 4.88338C12.1817 7.102 13.9802 8.90055 16.1989 8.90055C18.4175 8.90055 20.216 7.102 20.216 4.88338C20.216 2.66476 18.4175 0.866211 16.1989 0.866211C13.9802 0.866211 12.1817 2.66476 12.1817 4.88338Z" fill="#0D6000"/>
<path d="M17.5379 8.63274C17.5379 10.8514 19.3365 12.6499 21.5551 12.6499C23.7737 12.6499 25.5723 10.8514 25.5723 8.63274C25.5723 6.41412 23.7737 4.61557 21.5551 4.61557C19.3365 4.61557 17.5379 6.41412 17.5379 8.63274Z" fill="#0D6000"/>
<path d="M6.82547 8.63274C6.82547 10.8514 8.62402 12.6499 10.8426 12.6499C13.0613 12.6499 14.8598 10.8514 14.8598 8.63274C14.8598 6.41412 13.0613 4.61557 10.8426 4.61557C8.62402 4.61557 6.82547 6.41412 6.82547 8.63274Z" fill="#0D6000"/>
<path d="M12.1817 8.63274C12.1817 10.8514 13.9802 12.6499 16.1989 12.6499C18.4175 12.6499 20.216 10.8514 20.216 8.63274C20.216 6.41412 18.4175 4.61557 16.1989 4.61557C13.9802 4.61557 12.1817 6.41412 12.1817 8.63274Z" fill="#0D6000"/>
<defs>
<linearGradient id="paint0_linear_123_106" x1="4.01717" y1="4.01717" x2="8.03434" y2="4.01717" gradientUnits="userSpaceOnUse">
<stop stop-color="#37C122"/>
<stop offset="1" stop-color="#16A200"/>
</linearGradient>
<linearGradient id="paint1_linear_123_106" x1="27.983" y1="18.0064" x2="32.0002" y2="18.0064" gradientUnits="userSpaceOnUse">
<stop stop-color="#37C122"/>
<stop offset="1" stop-color="#16A200"/>
</linearGradient>
<linearGradient id="paint2_linear_123_106" x1="11.7837" y1="0" x2="11.7837" y2="23.5674" gradientUnits="userSpaceOnUse">
<stop stop-color="#1B840C"/>
<stop offset="0.71" stop-color="#3ABC26"/>
</linearGradient>
</defs>
</svg>
