<svg width="32" height="30" viewBox="0 0 32 30" fill="none" xmlns="http://www.w3.org/2000/svg">
<circle cx="3.51743" cy="3.51743" r="3.51743" transform="matrix(-1 0 0 1 9.48242 12.6631)" fill="url(#paint0_linear_123_116)"/>
<circle cx="26.6004" cy="16.1805" r="3.51743" fill="url(#paint1_linear_123_116)"/>
<circle cx="10.3178" cy="10.3178" r="10.3178" transform="matrix(-1 0 0 1 26.6006 4.9248)" fill="url(#paint2_linear_123_116)"/>
<path d="M12.7655 3.51743C12.7655 5.46006 14.3403 7.03487 16.2829 7.03487C18.2255 7.03487 19.8003 5.46006 19.8003 3.51743C19.8003 1.57481 18.2255 0 16.2829 0C14.3403 0 12.7655 1.57481 12.7655 3.51743Z" fill="#0D6000"/>
<path d="M17.4554 6.80037C17.4554 8.743 19.0302 10.3178 20.9728 10.3178C22.9154 10.3178 24.4902 8.743 24.4902 6.80037C24.4902 4.85775 22.9154 3.28294 20.9728 3.28294C19.0302 3.28294 17.4554 4.85775 17.4554 6.80037Z" fill="#0D6000"/>
<path d="M8.07555 6.80037C8.07555 8.743 9.65036 10.3178 11.593 10.3178C13.5356 10.3178 15.1104 8.743 15.1104 6.80037C15.1104 4.85775 13.5356 3.28294 11.593 3.28294C9.65036 3.28294 8.07555 4.85775 8.07555 6.80037Z" fill="#0D6000"/>
<path d="M12.7655 6.80037C12.7655 8.743 14.3403 10.3178 16.2829 10.3178C18.2255 10.3178 19.8003 8.743 19.8003 6.80037C19.8003 4.85775 18.2255 3.28294 16.2829 3.28294C14.3403 3.28294 12.7655 4.85775 12.7655 6.80037Z" fill="#0D6000"/>
<path d="M22.1455 18.29C22.1455 18.29 22.1455 21.6902 16.2831 21.6902C10.4207 21.6902 10.4207 18.29 10.4207 18.29" stroke="black" stroke-linecap="round"/>
<path d="M9.24805 16.1797C9.24805 16.1797 9.24805 14.0692 12.1792 14.0692C15.1104 14.0692 15.1104 16.1797 15.1104 16.1797" stroke="black" stroke-linecap="round"/>
<path d="M17.4556 16.1797C17.4556 16.1797 17.4556 14.0692 20.3868 14.0692C23.318 14.0692 23.318 16.1797 23.318 16.1797" stroke="black" stroke-linecap="round"/>
<circle cx="3.51743" cy="3.51743" r="3.51743" transform="matrix(-1 0 0 1 19.8008 15.4766)" fill="#0D6000"/>
<path d="M6.33303 5.34366C5.83683 4.57958 4.65277 4.89684 4.60509 5.80666C4.58376 6.21354 4.30287 6.56042 3.90931 6.66587C3.02929 6.90167 2.96514 8.12582 3.81569 8.45231C4.19607 8.59833 4.43916 8.97266 4.41784 9.37954C4.37016 10.2894 5.51457 10.7287 6.08792 10.0206C6.34433 9.70399 6.77547 9.58846 7.15584 9.73448C8.00639 10.061 8.77783 9.10833 8.28163 8.34424C8.05972 8.00254 8.08308 7.5568 8.33949 7.24016C8.91284 6.53213 8.24521 5.50407 7.36519 5.73987C6.97164 5.84532 6.55493 5.68536 6.33303 5.34366Z" fill="#FBBC05"/>
<path d="M11.9393 7.74583C11.624 7.26033 10.8717 7.46192 10.8414 8.04001C10.8278 8.29854 10.6493 8.51895 10.3993 8.58595C9.84012 8.73578 9.79936 9.5136 10.3398 9.72105C10.5815 9.81383 10.736 10.0517 10.7224 10.3102C10.6921 10.8883 11.4193 11.1674 11.7836 10.7176C11.9465 10.5164 12.2204 10.443 12.4621 10.5357C13.0026 10.7432 13.4927 10.1379 13.1774 9.65239C13.0364 9.43527 13.0513 9.15205 13.2142 8.95086C13.5785 8.50098 13.1543 7.84775 12.5951 7.99758C12.3451 8.06458 12.0803 7.96295 11.9393 7.74583Z" fill="#FBBC05"/>
<path d="M21.0843 24.6296C20.769 24.1441 20.0167 24.3457 19.9864 24.9238C19.9728 25.1823 19.7944 25.4027 19.5443 25.4697C18.9851 25.6196 18.9444 26.3974 19.4848 26.6048C19.7265 26.6976 19.881 26.9355 19.8674 27.194C19.8371 27.7721 20.5643 28.0512 20.9286 27.6013C21.0915 27.4001 21.3654 27.3267 21.6071 27.4195C22.1476 27.627 22.6377 27.0217 22.3225 26.5362C22.1815 26.3191 22.1963 26.0358 22.3592 25.8346C22.7235 25.3848 22.2993 24.7315 21.7402 24.8814C21.4901 24.9484 21.2253 24.8467 21.0843 24.6296Z" fill="#FBBC05"/>
<path d="M26.9466 10.5593C26.6313 10.0738 25.879 10.2754 25.8487 10.8535C25.8352 11.112 25.6567 11.3324 25.4066 11.3994C24.8474 11.5493 24.8067 12.3271 25.3471 12.5345C25.5888 12.6273 25.7433 12.8652 25.7297 13.1237C25.6994 13.7018 26.4266 13.9809 26.7909 13.531C26.9538 13.3298 27.2278 13.2564 27.4694 13.3492C28.0099 13.5567 28.5 12.9514 28.1848 12.4659C28.0438 12.2487 28.0586 11.9655 28.2215 11.7643C28.5858 11.3145 28.1616 10.6612 27.6025 10.8111C27.3524 10.8781 27.0876 10.7764 26.9466 10.5593Z" fill="#FBBC05"/>
<path d="M25.5611 20.8202C25.0649 20.0561 23.8808 20.3734 23.8331 21.2832C23.8118 21.6901 23.5309 22.037 23.1373 22.1424C22.2573 22.3782 22.1932 23.6024 23.0437 23.9289C23.4241 24.0749 23.6672 24.4492 23.6459 24.8561C23.5982 25.7659 24.7426 26.2052 25.3159 25.4972C25.5724 25.1805 26.0035 25.065 26.3839 25.211C27.2344 25.5375 28.0059 24.5849 27.5097 23.8208C27.2878 23.4791 27.3111 23.0334 27.5675 22.7167C28.1409 22.0087 27.4732 20.9806 26.5932 21.2164C26.1997 21.3219 25.783 21.1619 25.5611 20.8202Z" fill="#FBBC05"/>
<path d="M8.44289 21.5233C7.94669 20.7593 6.76263 21.0765 6.71495 21.9863C6.69363 22.3932 6.41273 22.7401 6.01917 22.8456C5.13916 23.0814 5.075 24.3055 5.92555 24.632C6.30593 24.778 6.54903 25.1524 6.5277 25.5592C6.48002 26.469 7.62443 26.9083 8.19778 26.2003C8.45419 25.8837 8.88533 25.7682 9.26571 25.9142C10.1163 26.2407 10.8877 25.288 10.3915 24.5239C10.1696 24.1822 10.1929 23.7365 10.4494 23.4198C11.0227 22.7118 10.3551 21.6838 9.47506 21.9196C9.0815 22.025 8.6648 21.8651 8.44289 21.5233Z" fill="#FBBC05"/>
<defs>
<linearGradient id="paint0_linear_123_116" x1="3.51743" y1="3.51743" x2="7.03487" y2="3.51743" gradientUnits="userSpaceOnUse">
<stop stop-color="#34BE1F"/>
<stop offset="1" stop-color="#138A00"/>
</linearGradient>
<linearGradient id="paint1_linear_123_116" x1="26.6004" y1="16.1805" x2="30.1179" y2="16.1805" gradientUnits="userSpaceOnUse">
<stop stop-color="#34BE1F"/>
<stop offset="1" stop-color="#138A00"/>
</linearGradient>
<linearGradient id="paint2_linear_123_116" x1="10.3178" y1="0" x2="10.3178" y2="20.6356" gradientUnits="userSpaceOnUse">
<stop stop-color="#1A5611"/>
<stop offset="0.525" stop-color="#39BC25"/>
</linearGradient>
</defs>
</svg>
