<svg width="49" height="47" viewBox="0 0 49 47" fill="none" xmlns="http://www.w3.org/2000/svg">
<path d="M24.0544 3.88076C27.5232 3.88076 30.3326 6.69153 30.3326 10.162C30.3326 13.6325 27.5232 16.4433 24.0544 16.4433C20.5857 16.4433 17.7763 13.6325 17.7763 10.162C17.7763 6.69153 20.5857 3.88076 24.0544 3.88076ZM24.0544 0C18.4523 0 13.8975 4.55712 13.8975 10.162C13.8975 15.767 18.4523 20.3241 24.0544 20.3241C29.6566 20.3241 34.2114 15.767 34.2114 10.162C34.2114 4.55712 29.6566 0 24.0544 0Z" fill="white"/>
<path d="M15.6872 9.74111C19.156 9.74111 21.9654 12.5519 21.9654 16.0224C21.9654 19.4929 19.156 22.3037 15.6872 22.3037C12.2185 22.3037 9.40909 19.4929 9.40909 16.0224C9.40909 12.5519 12.2185 9.74111 15.6872 9.74111ZM15.6872 5.86035C10.0851 5.86035 5.53027 10.4175 5.53027 16.0224C5.53027 21.6273 10.0851 26.1844 15.6872 26.1844C21.2894 26.1844 25.8442 21.6273 25.8442 16.0224C25.8442 10.4175 21.2894 5.86035 15.6872 5.86035Z" fill="white"/>
<path d="M32.4265 9.74111C35.8953 9.74111 38.7046 12.5519 38.7046 16.0224C38.7046 19.4929 35.8953 22.3037 32.4265 22.3037C28.9577 22.3037 26.1484 19.4929 26.1484 16.0224C26.1484 12.5519 28.9577 9.74111 32.4265 9.74111ZM32.4265 5.86035C26.8244 5.86035 22.2695 10.4175 22.2695 16.0224C22.2695 21.6273 26.8244 26.1844 32.4265 26.1844C38.0286 26.1844 42.5835 21.6273 42.5835 16.0224C42.5835 10.4175 38.0286 5.86035 32.4265 5.86035Z" fill="white"/>
<path d="M24.0541 11.9911C32.4268 11.9911 39.2148 18.7824 39.2148 27.1593C39.2148 35.5362 32.4268 42.3275 24.0541 42.3275C15.6814 42.3275 8.89347 35.5362 8.89347 27.1593C8.89347 18.7824 15.6814 11.9911 24.0541 11.9911ZM24.0541 8.11035C13.5536 8.11035 5.01465 16.6536 5.01465 27.1593C5.01465 37.6651 13.5536 46.2083 24.0541 46.2083C34.5546 46.2083 43.0936 37.6651 43.0936 27.1593C43.0936 16.6536 34.5546 8.11035 24.0541 8.11035Z" fill="white"/>
<path d="M9.04873 21.9931C11.9024 21.9931 14.2186 24.3104 14.2186 27.1656C14.2186 30.0207 11.9024 32.3381 9.04873 32.3381C6.19503 32.3381 3.87882 30.0207 3.87882 27.1656C3.87882 24.3104 6.19503 21.9931 9.04873 21.9931ZM9.04873 18.1123C4.06168 18.1123 0 22.1705 0 27.1656C0 32.1606 4.05614 36.2188 9.04873 36.2188C14.0413 36.2188 18.0975 32.1606 18.0975 27.1656C18.0975 22.1705 14.0413 18.1123 9.04873 18.1123Z" fill="white"/>
<path d="M39.5419 21.9931C42.3956 21.9931 44.7118 24.3104 44.7118 27.1656C44.7118 30.0207 42.3956 32.3381 39.5419 32.3381C36.6882 32.3381 34.372 30.0207 34.372 27.1656C34.372 24.3104 36.6882 21.9931 39.5419 21.9931ZM39.5419 18.1123C34.5548 18.1123 30.4932 22.1705 30.4932 27.1656C30.4932 32.1606 34.5493 36.2188 39.5419 36.2188C44.5345 36.2188 48.5906 32.1606 48.5906 27.1656C48.5906 22.1705 44.5345 18.1123 39.5419 18.1123Z" fill="white"/>
<path d="M20.0474 20.2471H14.412C13.8949 20.2471 13.4756 20.6665 13.4756 21.184C13.4756 21.7014 13.8949 22.1209 14.412 22.1209H20.0474C20.5646 22.1209 20.9839 21.7014 20.9839 21.184C20.9839 20.6665 20.5646 20.2471 20.0474 20.2471Z" fill="#0F0F0F"/>
<path d="M34.1783 20.2471H28.5429C28.0257 20.2471 27.6064 20.6665 27.6064 21.184C27.6064 21.7014 28.0257 22.1209 28.5429 22.1209H34.1783C34.6955 22.1209 35.1147 21.7014 35.1147 21.184C35.1147 20.6665 34.6955 20.2471 34.1783 20.2471Z" fill="#0F0F0F"/>
<path d="M9.04882 32.3319C11.9041 32.3319 14.2187 30.0161 14.2187 27.1594C14.2187 24.3027 11.9041 21.9869 9.04882 21.9869C6.19355 21.9869 3.87891 24.3027 3.87891 27.1594C3.87891 30.0161 6.19355 32.3319 9.04882 32.3319Z" fill="#FE3C01"/>
<path d="M39.5418 32.3319C42.3971 32.3319 44.7118 30.0161 44.7118 27.1594C44.7118 24.3027 42.3971 21.9869 39.5418 21.9869C36.6866 21.9869 34.3719 24.3027 34.3719 27.1594C34.3719 30.0161 36.6866 32.3319 39.5418 32.3319Z" fill="#FE3C01"/>
<path d="M23.8104 42.4457C32.1833 42.4457 38.971 35.6546 38.971 27.2774C38.971 18.9003 32.1833 12.1092 23.8104 12.1092C15.4374 12.1092 8.64971 18.9003 8.64971 27.2774C8.64971 35.6546 15.4374 42.4457 23.8104 42.4457Z" fill="url(#paint0_linear_434_201)"/>
<path d="M30.3325 10.1621C30.3325 13.6326 27.5231 16.4434 24.0543 16.4434C20.5856 16.4434 17.7762 13.6326 17.7762 10.1621C17.7762 6.69164 20.5856 3.88086 24.0543 3.88086C27.5231 3.88086 30.3325 6.69164 30.3325 10.1621Z" fill="#761C00"/>
<path d="M30.3325 16.022C30.3325 19.4925 27.5231 22.3033 24.0543 22.3033C20.5856 22.3033 17.7762 19.4925 17.7762 16.022C17.7762 12.5515 20.5856 9.74071 24.0543 9.74071C27.5231 9.74071 30.3325 12.5515 30.3325 16.022Z" fill="#761C00"/>
<path d="M38.6996 16.022C38.6996 19.4925 35.8903 22.3033 32.4215 22.3033C28.9527 22.3033 26.1433 19.4925 26.1433 16.022C26.1433 12.5515 28.9527 9.74071 32.4215 9.74071C35.8903 9.74071 38.6996 12.5515 38.6996 16.022Z" fill="#761C00"/>
<path d="M21.965 16.0222C21.965 19.4927 19.1556 22.3035 15.6868 22.3035C12.2181 22.3035 9.40869 19.4927 9.40869 16.0222C9.40869 12.5517 12.2181 9.74092 15.6868 9.74092C19.1556 9.74092 21.965 12.5517 21.965 16.0222Z" fill="#761C00"/>
<path d="M35.4904 29.0902C35.4904 29.0902 35.4904 25.0176 30.836 25.0176C26.1815 25.0176 26.1815 29.0902 26.1815 29.0902M22.1087 29.0902C22.1087 29.0902 22.1087 25.0176 17.4543 25.0176C12.7998 25.0176 12.7998 29.0902 12.7998 29.0902" stroke="#0F0F0F" stroke-width="2" stroke-linecap="round"/>
<path d="M24.292 38.0266C27.1473 38.0266 29.4619 35.7108 29.4619 32.8541C29.4619 29.9974 27.1473 27.6816 24.292 27.6816C21.4367 27.6816 19.1221 29.9974 19.1221 32.8541C19.1221 35.7108 21.4367 38.0266 24.292 38.0266Z" fill="#761C00"/>
<path d="M37.1627 14.0263C37.7007 13.1979 38.9845 13.5419 39.0362 14.5283L39.0541 14.8693C39.0772 15.3104 39.3818 15.6865 39.8085 15.8009L40.1383 15.8892C41.0924 16.1449 41.162 17.4722 40.2398 17.8262L39.921 17.9485C39.5086 18.1068 39.245 18.5127 39.2682 18.9539L39.286 19.2948C39.3377 20.2813 38.0969 20.7576 37.4753 19.9899L37.2604 19.7246C36.9824 19.3813 36.5149 19.256 36.1025 19.4143L35.7838 19.5367C34.8616 19.8907 34.0251 18.8578 34.5631 18.0293L34.7491 17.743C34.9897 17.3725 34.9644 16.8892 34.6864 16.5459L34.4715 16.2806C33.8498 15.5129 34.5737 14.3982 35.5279 14.6539L35.8577 14.7422C36.2844 14.8566 36.7362 14.6832 36.9768 14.3127L37.1627 14.0263Z" fill="#FBBC05"/>
<path d="M28.6462 18.2552C29.0181 17.6825 29.9056 17.9203 29.9414 18.6023C29.9574 18.9073 30.1679 19.1673 30.4629 19.2463C31.1225 19.423 31.1706 20.3406 30.5331 20.5853C30.248 20.6948 30.0657 20.9754 30.0817 21.2804C30.1175 21.9623 29.2597 22.2916 28.8299 21.7609C28.6377 21.5235 28.3146 21.437 28.0294 21.5464C27.3919 21.7911 26.8137 21.0771 27.1856 20.5043C27.3519 20.2482 27.3344 19.9141 27.1422 19.6768C26.7125 19.1461 27.2129 18.3755 27.8725 18.5522C28.1675 18.6313 28.4799 18.5114 28.6462 18.2552Z" fill="#FBBC05"/>
<path d="M18.2572 38.847C18.6292 38.2743 19.5167 38.5121 19.5524 39.1941C19.5684 39.499 19.779 39.7591 20.074 39.8381C20.7336 40.0148 20.7817 40.9324 20.1441 41.1771C19.859 41.2866 19.6768 41.5672 19.6928 41.8722C19.7285 42.5541 18.8707 42.8834 18.441 42.3527C18.2488 42.1153 17.9256 42.0288 17.6405 42.1382C17.003 42.3829 16.4247 41.6689 16.7967 41.0961C16.963 40.84 16.9455 40.5059 16.7533 40.2686C16.3235 39.7379 16.824 38.9673 17.4836 39.144C17.7786 39.223 18.0909 39.1031 18.2572 38.847Z" fill="#FBBC05"/>
<path d="M9.5303 20.2291C9.90223 19.6564 10.7898 19.8942 10.8255 20.5761C10.8415 20.8811 11.052 21.1411 11.347 21.2201C12.0066 21.3969 12.0547 22.3145 11.4172 22.5592C11.1321 22.6686 10.9499 22.9492 10.9658 23.2542C11.0016 23.9362 10.1438 24.2654 9.71402 23.7347C9.52183 23.4974 9.19867 23.4108 8.91355 23.5203C8.27601 23.765 7.69778 23.0509 8.06971 22.4782C8.23604 22.2221 8.21853 21.888 8.02634 21.6506C7.59658 21.1199 8.09701 20.3493 8.75663 20.5261C9.05163 20.6051 9.36397 20.4852 9.5303 20.2291Z" fill="#FBBC05"/>
<path d="M12.7265 33.8078C13.2645 32.9794 14.5483 33.3234 14.6 34.3098L14.6179 34.6508C14.641 35.092 14.9456 35.4681 15.3723 35.5824L15.7021 35.6708C16.6562 35.9264 16.7258 37.2537 15.8036 37.6077L15.4848 37.7301C15.0724 37.8884 14.8088 38.2942 14.8319 38.7354L14.8498 39.0764C14.9015 40.0628 13.6607 40.5391 13.039 39.7715L12.8242 39.5061C12.5462 39.1628 12.0787 39.0375 11.6663 39.1959L11.3475 39.3182C10.4253 39.6722 9.5889 38.6393 10.1269 37.8109L10.3129 37.5245C10.5535 37.154 10.5281 36.6707 10.2501 36.3274L10.0353 36.0621C9.41361 35.2944 10.1375 34.1797 11.0916 34.4354L11.4214 34.5238C11.8481 34.6381 12.2999 34.4647 12.5405 34.0942L12.7265 33.8078Z" fill="#FBBC05"/>
<path d="M33.672 33.8078C34.21 32.9794 35.4938 33.3234 35.5455 34.3098L35.5634 34.6508C35.5865 35.092 35.8911 35.4681 36.3178 35.5824L36.6476 35.6708C37.6018 35.9264 37.6713 37.2537 36.7491 37.6077L36.4304 37.7301C36.0179 37.8884 35.7544 38.2942 35.7775 38.7354L35.7953 39.0764C35.847 40.0628 34.6062 40.5391 33.9846 39.7715L33.7697 39.5061C33.4917 39.1628 33.0242 39.0375 32.6118 39.1959L32.2931 39.3182C31.3709 39.6722 30.5344 38.6393 31.0724 37.8109L31.2584 37.5245C31.499 37.154 31.4737 36.6707 31.1957 36.3274L30.9808 36.0621C30.3591 35.2944 31.083 34.1797 32.0372 34.4354L32.367 34.5238C32.7937 34.6381 33.2455 34.4647 33.4861 34.0942L33.672 33.8078Z" fill="#FBBC05"/>
<defs>
<linearGradient id="paint0_linear_434_201" x1="24.2953" y1="3.88086" x2="24.2953" y2="42.4527" gradientUnits="userSpaceOnUse">
<stop offset="0.115" stop-color="#761C00"/>
<stop offset="1" stop-color="#FE3C01"/>
</linearGradient>
</defs>
</svg>
