<svg width="100" height="100" viewBox="0 0 100 100" fill="none" xmlns="http://www.w3.org/2000/svg">
<g clip-path="url(#clip0_328_955)">
<rect width="100" height="100" rx="10" fill="#FF3C00"/>
<g filter="url(#filter0_di_328_955)">
<path d="M19.6435 66.5183C22.1765 70.2914 31.1345 76.2958 39.1838 74.749V68.0648C39.1838 68.0648 23.0812 69.4565 23.0812 50.2501C23.0812 32.4973 39.1838 33.0231 39.1838 33.0231C39.1838 33.0231 39.1838 28.9405 39.2441 26.4663C36.2286 25.6931 25.8855 25.8476 19.6435 34.4148V66.5183Z" fill="url(#paint0_linear_328_955)"/>
<path d="M78.9879 66.5669C76.455 70.34 67.4367 76.2958 59.3874 74.749V68.1206C59.3874 68.1206 75.5503 69.5049 75.5503 50.2986C75.5503 32.5457 59.3547 33.0231 59.3547 33.0231C59.3547 33.0231 59.3874 28.7858 59.3271 26.3116C62.3426 25.5383 72.7459 25.8962 78.9879 34.4634V66.5669Z" fill="url(#paint1_linear_328_955)"/>
<path d="M39.2119 28.3084L39.1536 37.1365C44.5815 31.1674 53.7786 31.4148 59.3573 37.1365L59.3547 33.0231L59.3521 28.3084C53.0498 25.3083 46.2983 25.1537 39.2119 28.3084Z" fill="url(#paint2_linear_328_955)"/>
<path d="M59.3874 72.4565V63.5801C53.9596 69.5493 44.7624 69.3018 39.1838 63.5801V72.4565C45.4861 75.4566 52.3011 75.6112 59.3874 72.4565Z" fill="url(#paint3_linear_328_955)"/>
<path d="M16.8556 34.3017V66.6983C15.4177 65.9867 13 61.4339 13 61.4339C13 52.5691 13 40.781 13 40.781C13 40.781 15.8353 34.6953 16.8556 34.3017Z" fill="url(#paint4_linear_328_955)"/>
<path d="M82.1444 34.3017V66.6983C83.5823 65.9867 86 61.4339 86 61.4339C86 52.5691 86 40.781 86 40.781C86 40.781 83.1647 34.6953 82.1444 34.3017Z" fill="url(#paint5_linear_328_955)"/>
</g>
</g>
<defs>
<filter id="filter0_di_328_955" x="-0.9" y="12.1" width="100.8" height="76.8" filterUnits="userSpaceOnUse" color-interpolation-filters="sRGB">
<feFlood flood-opacity="0" result="BackgroundImageFix"/>
<feColorMatrix in="SourceAlpha" type="matrix" values="0 0 0 0 0 0 0 0 0 0 0 0 0 0 0 0 0 0 127 0" result="hardAlpha"/>
<feOffset/>
<feGaussianBlur stdDeviation="6.95"/>
<feComposite in2="hardAlpha" operator="out"/>
<feColorMatrix type="matrix" values="0 0 0 0 1 0 0 0 0 1 0 0 0 0 1 0 0 0 0.25 0"/>
<feBlend mode="normal" in2="BackgroundImageFix" result="effect1_dropShadow_328_955"/>
<feBlend mode="normal" in="SourceGraphic" in2="effect1_dropShadow_328_955" result="shape"/>
<feColorMatrix in="SourceAlpha" type="matrix" values="0 0 0 0 0 0 0 0 0 0 0 0 0 0 0 0 0 0 127 0" result="hardAlpha"/>
<feOffset/>
<feGaussianBlur stdDeviation="11.25"/>
<feComposite in2="hardAlpha" operator="arithmetic" k2="-1" k3="1"/>
<feColorMatrix type="matrix" values="0 0 0 0 1 0 0 0 0 0.869028 0 0 0 0 0.829167 0 0 0 1 0"/>
<feBlend mode="normal" in2="shape" result="effect2_innerShadow_328_955"/>
</filter>
<linearGradient id="paint0_linear_328_955" x1="49.5" y1="26" x2="49.5" y2="75" gradientUnits="userSpaceOnUse">
<stop stop-color="#FFE8E1"/>
<stop offset="1" stop-color="#FFA58A"/>
</linearGradient>
<linearGradient id="paint1_linear_328_955" x1="49.5" y1="26" x2="49.5" y2="75" gradientUnits="userSpaceOnUse">
<stop stop-color="#FFE8E1"/>
<stop offset="1" stop-color="#FFA58A"/>
</linearGradient>
<linearGradient id="paint2_linear_328_955" x1="49.5" y1="26" x2="49.5" y2="75" gradientUnits="userSpaceOnUse">
<stop stop-color="#FFE8E1"/>
<stop offset="1" stop-color="#FFA58A"/>
</linearGradient>
<linearGradient id="paint3_linear_328_955" x1="49.5" y1="26" x2="49.5" y2="75" gradientUnits="userSpaceOnUse">
<stop stop-color="#FFE8E1"/>
<stop offset="1" stop-color="#FFA58A"/>
</linearGradient>
<linearGradient id="paint4_linear_328_955" x1="49.5" y1="26" x2="49.5" y2="75" gradientUnits="userSpaceOnUse">
<stop stop-color="#FFE8E1"/>
<stop offset="1" stop-color="#FFA58A"/>
</linearGradient>
<linearGradient id="paint5_linear_328_955" x1="49.5" y1="26" x2="49.5" y2="75" gradientUnits="userSpaceOnUse">
<stop stop-color="#FFE8E1"/>
<stop offset="1" stop-color="#FFA58A"/>
</linearGradient>
<clipPath id="clip0_328_955">
<rect width="100" height="100" rx="10" fill="white"/>
</clipPath>
</defs>
</svg>
