<svg width="314" height="260" viewBox="0 0 314 260" fill="none" xmlns="http://www.w3.org/2000/svg">
<path d="M131.846 360.297C115.621 360.297 108.047 355.279 106.693 354.25C103.809 352.093 102.53 348.404 103.458 344.942L135.859 223.931H106.442C101.602 223.931 97.665 219.992 97.665 215.15V195.479C97.665 190.636 101.602 186.697 106.442 186.697H207.807C212.647 186.697 216.584 190.636 216.584 195.479V215.15C216.584 219.992 212.647 223.931 207.807 223.931H177.763L212.321 345.745C213.374 349.483 212.12 353.673 208.835 355.756C207.33 356.709 205.65 357.211 203.995 357.211C202.139 357.211 200.308 356.584 198.754 355.279C197.926 354.827 193.387 352.594 183.958 352.594C176.986 352.594 168.961 353.774 160.159 356.132C149.877 358.867 140.347 360.272 131.846 360.272V360.297Z" fill="white"/>
<path d="M207.807 195.48V215.151H166.152L203.869 348.13C203.869 348.13 198.076 343.814 183.958 343.814C177.237 343.814 168.66 344.793 157.902 347.653C147.143 350.513 138.542 351.492 131.846 351.492C117.727 351.492 111.934 347.176 111.934 347.176L147.294 215.126H106.442V195.455H207.807M207.807 177.917H106.442C96.737 177.917 88.8877 185.77 88.8877 195.48V215.151C88.8877 224.861 96.737 232.714 106.442 232.714H124.423L94.9816 342.66C93.1258 349.61 95.6838 356.987 101.452 361.302C103.909 363.134 113.339 369.08 131.846 369.08C141.1 369.08 151.407 367.6 162.416 364.664C170.491 362.506 177.738 361.428 183.958 361.428C190.478 361.428 193.713 362.657 194.415 362.958C197.299 364.79 200.584 365.718 203.869 365.718C207.355 365.718 210.841 364.689 213.825 362.607C220.019 358.341 222.803 350.589 220.747 343.363L189.374 232.739H207.781C217.487 232.739 225.336 224.886 225.336 215.176V195.505C225.336 185.795 217.487 177.942 207.781 177.942L207.807 177.917Z" fill="white"/>
<path d="M238.778 389.979C236.37 389.979 233.988 389.929 231.631 389.904C229.399 389.854 227.192 389.829 224.985 389.829C208.133 389.829 200.534 377.936 199.155 367.724C199.055 366.896 199.004 366.093 199.004 365.265C199.004 365.265 199.004 316.74 199.004 316.615L202.766 223.053C202.942 218.763 204.597 214.598 207.405 211.361L210.039 208.325C213.65 204.185 218.866 201.802 224.358 201.802C227.292 201.802 230.201 202.504 232.834 203.809C236.571 205.666 239.605 208.777 241.436 212.566C251.893 234.294 263.404 253.789 273.561 271.026C294.45 306.453 309.572 332.02 303.629 354.326C300.82 364.839 293.673 373.244 281.736 380.043C266.363 388.775 251.994 389.979 238.753 389.979H238.778Z" fill="white"/>
<path d="M224.383 210.608C225.938 210.608 227.493 210.959 228.947 211.687C230.954 212.691 232.584 214.372 233.562 216.404C272.533 297.396 324.569 345.619 277.448 372.416C263.856 380.143 251.066 381.222 238.828 381.222C234.164 381.222 229.574 381.072 225.035 381.072C210.841 381.072 208.308 369.681 207.907 366.57C207.857 366.143 207.832 365.716 207.832 365.265V316.966L211.594 223.404C211.694 221.096 212.572 218.863 214.101 217.132L216.735 214.096C218.716 211.812 221.55 210.583 224.433 210.583M224.383 193.045C216.358 193.045 208.71 196.532 203.443 202.579L200.81 205.615C196.672 210.357 194.265 216.429 194.014 222.727L190.252 316.289C190.252 316.514 190.252 316.765 190.252 316.991V365.29C190.252 366.57 190.328 367.749 190.503 368.953C192.509 383.731 203.97 398.635 225.035 398.635C227.192 398.635 229.349 398.66 231.53 398.71C233.938 398.76 236.37 398.785 238.828 398.785C252.571 398.785 268.947 397.456 286.125 387.696C300.018 379.792 308.77 369.329 312.156 356.609C319.027 330.766 302.325 302.439 281.159 266.585C271.078 249.523 259.668 230.179 249.386 208.777C246.728 203.257 242.264 198.69 236.797 195.98C232.96 194.074 228.672 193.045 224.408 193.045H224.383Z" fill="white"/>
<path d="M171.469 377.96C169.061 377.96 166.88 377.809 164.974 377.533C161.362 377.006 158.428 374.296 157.651 370.734C157.425 369.73 155.67 360.973 159.482 351.74C161.362 339.872 156.798 240.088 153.739 225.084C152.836 223.554 152.385 221.772 152.485 219.941C152.786 214.672 152.986 211.209 190.478 196.883C191.481 196.506 192.534 196.306 193.613 196.306C193.838 196.306 194.064 196.306 194.29 196.331L227.167 198.865C230.778 199.141 233.837 201.6 234.891 205.062C235.944 208.525 234.79 212.263 231.956 214.521C230.677 215.55 228.42 218.385 228.245 220.618C228.721 223.679 232.558 235.999 235.969 246.913C254.1 305.198 257.661 322.786 252.921 330.99C246.978 341.779 237.373 349.357 229.725 353.772C230.151 357.21 229.95 361.049 228.094 364.336C226.239 367.647 223.104 369.805 219.317 370.407C218.264 370.583 215.857 371.11 213.073 371.712C202.315 374.045 184.309 377.96 171.519 377.96H171.469Z" fill="white"/>
<path d="M193.612 205.088L226.489 207.622C224.132 209.478 219.443 214.747 219.443 220.844C219.443 228.472 251.517 316.438 245.273 326.625C238.376 339.246 225.185 346.798 219.443 349.006C220.997 352.895 222.878 360.898 217.888 361.726C212.32 362.63 186.942 369.178 171.469 369.178C169.563 369.178 167.782 369.078 166.227 368.852C166.227 368.852 164.673 361.726 167.782 354.601C170.917 347.475 164.648 222.475 161.513 220.844C158.378 219.213 181.6 209.654 193.587 205.088M193.612 187.524C191.481 187.524 189.349 187.926 187.368 188.679C184.584 189.732 174.829 193.521 166.102 197.435C155.444 202.227 144.435 207.17 143.733 219.439C143.557 222.375 144.134 225.26 145.287 227.845C148.046 245.132 152.184 334.704 150.88 349.658C146.792 360.622 148.648 370.633 149.099 372.616C150.679 379.766 156.497 385.186 163.745 386.215C166.102 386.566 168.635 386.716 171.494 386.716C185.236 386.716 203.819 382.677 214.929 380.268C217.261 379.766 219.894 379.189 220.721 379.064C227.116 378.035 232.583 374.221 235.743 368.626C237.599 365.339 238.451 361.877 238.652 358.515C245.849 353.723 254.501 346.221 260.52 335.382C267.115 324.116 264.231 308.259 244.345 244.304C241.787 236.099 238.727 226.239 237.448 221.396C237.499 221.346 237.524 221.321 237.549 221.271C243.116 216.78 245.373 209.328 243.291 202.478C241.185 195.578 235.066 190.661 227.869 190.109L194.992 187.575C194.54 187.55 194.089 187.524 193.637 187.524H193.612Z" fill="white"/>
<path d="M162.34 232.185C159.13 232.185 156.196 230.454 154.641 227.644C151.406 221.748 151.406 214.622 154.691 207.597C155.444 205.966 156.447 204.184 157.651 202.553C157.325 201.826 157.099 200.998 156.948 200.07C156.798 199.216 156.798 198.363 156.923 197.51V187.65C156.923 183.184 160.259 179.445 164.697 178.918C165.199 178.868 166.127 178.793 167.431 178.793C174.854 178.793 224.408 181.327 229.925 183.134C235.592 184.99 239.956 189.281 241.611 194.6C242.89 198.69 243.166 205.213 237.247 212.966C230.777 221.497 216.533 222.55 201.461 223.68C194.139 224.232 185.813 224.859 182.076 226.389C173.374 229.977 166.001 232.11 162.365 232.11L162.34 232.185Z" fill="white"/>
<path d="M167.407 187.625C177.638 187.625 223.731 190.41 227.167 191.514C231.781 193.044 237.173 198.589 230.252 207.697C223.33 216.805 191.03 213.267 178.717 218.31C168.861 222.35 163.62 223.378 162.341 223.378C158.128 215.751 165.15 206.417 166.404 206.166C181.776 203.131 194.089 206.166 206.403 202.629C211.243 201.249 163.369 199.518 165.701 198.564V187.65C166.027 187.625 166.604 187.6 167.432 187.6M167.407 170.062C165.827 170.062 164.698 170.112 163.67 170.237C154.818 171.266 148.147 178.768 148.147 187.675V197.034C148.022 198.338 148.047 199.668 148.222 201.023C147.67 202.002 147.194 202.955 146.743 203.883C142.329 213.367 142.404 223.579 146.968 231.884C150.053 237.479 155.946 240.967 162.341 240.967C168.736 240.967 178.316 237.504 185.387 234.594C187.92 233.565 196.447 232.938 202.089 232.511C218.44 231.282 235.342 230.027 244.195 218.36C252.797 207.045 251.492 197.034 249.938 192.066C247.43 184.037 240.96 177.589 232.634 174.854C224.709 172.244 171.168 170.062 167.407 170.062Z" fill="white"/>
<path d="M74.8944 389.979C61.6533 389.979 47.3088 388.775 31.9111 380.043C19.9741 373.244 12.8018 364.839 10.0182 354.326C4.07474 332.046 19.1966 306.453 40.0864 271.026C50.2429 253.814 61.7787 234.294 72.2111 212.566C74.0418 208.777 77.0762 205.666 80.8128 203.809C83.4459 202.504 86.355 201.802 89.2891 201.802C94.7811 201.802 99.9973 204.185 103.608 208.325L106.242 211.361C109.075 214.598 110.705 218.763 110.881 223.053C110.881 223.053 114.668 316.841 114.668 316.966V365.265C114.668 366.093 114.618 366.896 114.517 367.749C113.138 377.936 105.539 389.829 88.6872 389.829C86.4803 389.829 84.2735 389.854 82.0416 389.904C79.6843 389.954 77.3019 389.979 74.8944 389.979Z" fill="white"/>
<path d="M89.3145 210.608C92.1984 210.608 95.0322 211.838 97.0134 214.121L99.6465 217.157C101.176 218.913 102.054 221.121 102.154 223.429L105.916 316.991V365.29C105.916 365.716 105.916 366.143 105.841 366.57C105.414 369.656 102.907 381.072 88.7126 381.072C84.1736 381.072 79.5843 381.222 74.9198 381.222C62.6568 381.222 49.8922 380.143 36.3 372.416C-10.8211 345.619 41.1902 297.396 80.1862 216.404C81.1642 214.372 82.7943 212.716 84.8005 211.687C86.255 210.959 87.8098 210.608 89.3646 210.608M89.3145 193.045C85.0262 193.045 80.7379 194.049 76.9261 195.98C71.4842 198.715 66.9953 203.257 64.337 208.777C54.0551 230.153 42.6196 249.498 32.5635 266.585C11.3978 302.439 -5.30401 330.766 1.56731 356.609C4.95281 369.329 13.705 379.792 27.5981 387.696C44.8014 397.481 61.1521 398.785 74.8948 398.785C77.3524 398.785 79.7849 398.735 82.1924 398.71C84.3742 398.685 86.5309 398.635 88.6875 398.635C109.753 398.635 121.213 383.731 123.22 368.953C123.37 367.774 123.47 366.57 123.47 365.29V316.991C123.47 316.765 123.47 316.514 123.47 316.289L119.709 222.727C119.458 216.429 117.051 210.357 112.913 205.615L110.28 202.579C105.013 196.507 97.3645 193.045 89.3396 193.045H89.3145Z" fill="white"/>
<path d="M142.229 377.96C129.414 377.96 111.409 374.045 100.675 371.712C97.8917 371.11 95.4842 370.583 94.431 370.407C90.6191 369.78 87.5095 367.622 85.6537 364.336C83.798 361.049 83.5974 357.21 84.0237 353.772C76.3749 349.382 66.7702 341.779 60.8267 330.99C56.087 322.811 59.6481 305.223 77.7793 246.913C81.1648 235.999 85.0017 223.679 85.5033 220.618C85.3277 218.385 83.0707 215.55 81.7918 214.521C78.958 212.263 77.8044 208.525 78.8577 205.062C79.9109 201.6 82.9704 199.166 86.5816 198.865L119.434 196.331C119.659 196.331 119.885 196.306 120.111 196.306C121.189 196.306 122.242 196.506 123.245 196.883C160.737 211.184 160.937 214.672 161.238 219.941C161.339 221.772 160.887 223.554 159.984 225.084C156.925 240.088 152.361 339.872 154.241 351.715C158.028 360.948 156.273 369.705 156.072 370.708C155.295 374.271 152.361 376.981 148.749 377.508C146.844 377.784 144.662 377.934 142.254 377.934L142.229 377.96Z" fill="white"/>
<path d="M120.085 205.088C132.072 209.654 155.294 219.213 152.16 220.844C149.025 222.475 142.78 347.475 145.89 354.601C149.025 361.726 147.445 368.852 147.445 368.852C145.89 369.078 144.135 369.178 142.204 369.178C126.756 369.178 101.377 362.63 95.7847 361.726C90.7691 360.924 92.65 352.92 94.2299 349.006C88.4871 346.798 75.2961 339.246 68.3998 326.625C62.1303 316.464 94.2299 228.472 94.2299 220.844C94.2299 214.747 89.5403 209.478 87.183 207.622L120.06 205.088M120.085 187.524C119.634 187.524 119.182 187.524 118.731 187.575L85.8539 190.109C78.6566 190.661 72.5376 195.578 70.4311 202.478C68.3245 209.328 70.6066 216.755 76.1739 221.271C76.1989 221.296 76.2491 221.346 76.2742 221.396C74.9952 226.214 71.9357 236.074 69.3778 244.304C49.4911 308.259 46.6072 324.116 53.2026 335.382C59.2213 346.221 67.8731 353.723 75.0704 358.515C75.2961 361.877 76.1237 365.339 77.9795 368.626C81.1393 374.221 86.6062 378.01 93.0011 379.064C93.8286 379.189 96.4618 379.766 98.794 380.268C109.903 382.677 128.486 386.716 142.229 386.716C145.088 386.716 147.62 386.541 149.978 386.215C157.225 385.161 163.043 379.741 164.623 372.616C165.05 370.608 166.905 360.622 162.843 349.658C161.539 334.704 165.651 245.132 168.435 227.845C169.614 225.26 170.165 222.375 169.99 219.439C169.288 207.17 158.279 202.227 147.62 197.435C138.893 193.521 129.138 189.732 126.355 188.679C124.348 187.926 122.242 187.524 120.11 187.524H120.085Z" fill="white"/>
<path d="M151.381 232.185C147.745 232.185 140.372 230.052 131.67 226.464C127.908 224.909 119.607 224.307 112.285 223.755C97.213 222.626 82.9688 221.547 76.4987 213.041C70.6055 205.263 70.8813 198.765 72.1352 194.675C73.7903 189.356 78.1539 185.065 83.8215 183.209C89.3386 181.402 138.892 178.868 146.315 178.868C147.594 178.868 148.547 178.918 149.049 178.994C153.488 179.495 156.823 183.259 156.823 187.725V197.586C156.923 198.414 156.923 199.267 156.798 200.145C156.647 201.073 156.397 201.901 156.096 202.629C157.324 204.234 158.302 206.041 159.055 207.647C162.315 214.672 162.34 221.798 159.105 227.694C157.55 230.504 154.616 232.235 151.406 232.235L151.381 232.185Z" fill="white"/>
<path d="M146.316 187.625C147.119 187.625 147.72 187.625 148.046 187.675V198.589C150.379 199.543 102.505 201.249 107.345 202.654C119.658 206.192 131.947 203.156 147.344 206.192C148.598 206.442 155.62 215.751 151.407 223.404C150.128 223.404 144.887 222.4 135.031 218.335C122.718 213.267 90.4177 216.83 83.4963 207.722C76.5748 198.614 81.9665 193.044 86.5808 191.539C89.9914 190.41 136.109 187.65 146.341 187.65M146.316 170.062C142.554 170.062 88.9883 172.244 81.0888 174.854C72.7379 177.589 66.2678 184.037 63.7851 192.066C62.2303 197.034 60.9263 207.045 69.5279 218.36C78.4055 230.027 95.3079 231.307 111.634 232.511C117.276 232.938 125.828 233.565 128.335 234.594C135.407 237.504 145.163 240.967 151.382 240.967C157.601 240.967 163.67 237.479 166.755 231.884C171.319 223.579 171.394 213.393 166.98 203.883C166.554 202.955 166.052 202.002 165.501 201.023C165.676 199.693 165.701 198.338 165.576 197.034V187.675C165.576 178.768 158.905 171.266 150.053 170.237C149.025 170.112 147.896 170.062 146.316 170.062Z" fill="white"/>
<path d="M156.999 219.164C149.024 219.164 142.805 213.945 141.626 212.917C139.77 211.261 138.692 208.877 138.692 206.368V178.342C138.692 173.5 142.629 169.561 147.469 169.561H166.177C171.017 169.561 174.954 173.5 174.954 178.342V206.368C174.954 208.752 173.976 211.035 172.271 212.691C171.143 213.77 165.149 219.164 156.999 219.164Z" fill="white"/>
<path d="M166.202 178.318V206.344C166.202 206.344 162.04 210.358 156.999 210.358C151.958 210.358 147.469 206.344 147.469 206.344V178.318H166.177M166.202 160.755H147.494C137.789 160.755 129.94 168.608 129.94 178.318V206.344C129.94 211.337 132.072 216.104 135.808 219.441C138.04 221.423 146.14 227.922 157.024 227.922C167.908 227.922 176.234 221.072 178.39 218.989C181.826 215.678 183.757 211.111 183.757 206.344V178.318C183.757 168.608 175.908 160.755 166.202 160.755Z" fill="white"/>
<path d="M147.494 205.814C145.563 205.814 143.657 205.162 142.102 203.957C139.971 202.301 138.717 199.742 138.717 197.032V179.87C138.717 175.028 142.654 171.089 147.494 171.089H166.202C171.042 171.089 174.979 175.028 174.979 179.87V192.365C174.979 196.405 172.246 199.918 168.334 200.896L149.626 205.588C148.923 205.764 148.196 205.839 147.494 205.839V205.814Z" fill="white"/>
<path d="M166.202 179.871V192.341L147.494 197.033V179.871H166.202ZM166.202 162.308H147.494C137.789 162.308 129.94 170.161 129.94 179.871V197.033C129.94 202.452 132.423 207.545 136.686 210.882C139.796 213.316 143.607 214.596 147.494 214.596C148.924 214.596 150.353 214.42 151.758 214.069L170.466 209.377C178.29 207.42 183.757 200.395 183.757 192.341V179.871C183.757 170.161 175.908 162.308 166.202 162.308Z" fill="white"/>
<path d="M226.414 155.107C208.684 155.107 194.239 140.68 194.239 122.916C194.239 105.153 208.659 90.7256 226.414 90.7256C244.169 90.7256 258.589 105.153 258.589 122.916C258.589 140.68 244.169 155.107 226.414 155.107Z" fill="white"/>
<path d="M226.414 99.532C239.329 99.532 249.812 110.02 249.812 122.941C249.812 135.863 239.329 146.35 226.414 146.35C213.499 146.35 203.017 135.863 203.017 122.941C203.017 110.02 213.499 99.532 226.414 99.532ZM226.414 81.9688C203.844 81.9688 185.462 100.335 185.462 122.941C185.462 145.548 203.819 163.914 226.414 163.914C249.01 163.914 267.366 145.548 267.366 122.941C267.366 100.335 249.01 81.9688 226.414 81.9688Z" fill="white"/>
<path d="M88.4106 155.107C70.6806 155.107 56.2358 140.68 56.2358 122.916C56.2358 105.153 70.6556 90.7256 88.4106 90.7256C106.166 90.7256 120.585 105.153 120.585 122.916C120.585 140.68 106.166 155.107 88.4106 155.107Z" fill="white"/>
<path d="M88.411 99.532C101.326 99.532 111.809 110.02 111.809 122.941C111.809 135.863 101.326 146.35 88.411 146.35C75.4959 146.35 65.0134 135.863 65.0134 122.941C65.0134 110.02 75.4959 99.532 88.411 99.532ZM88.411 81.9688C65.841 81.9688 47.459 100.335 47.459 122.941C47.459 145.548 65.8159 163.914 88.411 163.914C111.006 163.914 129.363 145.548 129.363 122.941C129.363 100.335 111.006 81.9688 88.411 81.9688Z" fill="white"/>
<path d="M156.322 200.369C113.64 200.369 78.9321 165.644 78.9321 122.94C78.9321 80.2367 113.64 45.5117 156.322 45.5117C199.005 45.5117 233.712 80.2367 233.712 122.94C233.712 165.644 199.005 200.369 156.322 200.369Z" fill="white"/>
<path d="M156.323 54.2693C194.215 54.2693 224.935 85.0049 224.935 122.916C224.935 160.828 194.215 191.563 156.323 191.563C118.43 191.563 87.7097 160.828 87.7097 122.916C87.7097 85.0049 118.43 54.2693 156.323 54.2693ZM156.323 36.7061C108.8 36.7061 70.1553 75.3702 70.1553 122.916C70.1553 170.462 108.8 209.127 156.323 209.127C203.845 209.127 242.49 170.462 242.49 122.916C242.49 75.3702 203.845 36.7061 156.323 36.7061Z" fill="white"/>
<path d="M156.322 83.1747C135.808 83.1747 119.131 66.4896 119.131 45.9658C119.131 25.4419 135.808 8.75684 156.322 8.75684C176.835 8.75684 193.512 25.4419 193.512 45.9658C193.512 66.4896 176.835 83.1747 156.322 83.1747Z" fill="white"/>
<path d="M156.322 17.5632C172.02 17.5632 184.735 30.284 184.735 45.9905C184.735 61.6971 172.02 74.4179 156.322 74.4179C140.623 74.4179 127.908 61.6971 127.908 45.9905C127.908 30.284 140.623 17.5632 156.322 17.5632ZM156.322 0C130.968 0 110.354 20.6242 110.354 45.9905C110.354 71.3568 130.968 91.9811 156.322 91.9811C181.675 91.9811 202.289 71.3568 202.289 45.9905C202.289 20.6242 181.675 0 156.322 0Z" fill="white"/>
<path d="M118.455 109.695C97.966 109.695 81.2642 93.0101 81.2642 72.4863C81.2642 51.9624 97.9409 35.2773 118.455 35.2773C138.968 35.2773 155.645 51.9624 155.645 72.4863C155.645 93.0101 138.968 109.695 118.455 109.695Z" fill="white"/>
<path d="M118.454 44.0847C134.153 44.0847 146.868 56.8055 146.868 72.512C146.868 88.2186 134.153 100.939 118.454 100.939C102.756 100.939 90.0413 88.2186 90.0413 72.512C90.0413 56.8055 102.756 44.0847 118.454 44.0847ZM118.454 26.5215C93.1008 26.5215 72.4868 47.1457 72.4868 72.512C72.4868 97.8783 93.1008 118.503 118.454 118.503C143.808 118.503 164.422 97.8783 164.422 72.512C164.422 47.1457 143.808 26.5215 118.454 26.5215Z" fill="white"/>
<path d="M194.214 109.695C173.7 109.695 157.023 93.0101 157.023 72.4863C157.023 51.9624 173.7 35.2773 194.214 35.2773C214.727 35.2773 231.404 51.9624 231.404 72.4863C231.404 93.0101 214.727 109.695 194.214 109.695Z" fill="white"/>
<path d="M194.214 44.0847C209.913 44.0847 222.627 56.8055 222.627 72.512C222.627 88.2186 209.913 100.939 194.214 100.939C178.515 100.939 165.801 88.2186 165.801 72.512C165.801 56.8055 178.515 44.0847 194.214 44.0847ZM194.214 26.5215C168.861 26.5215 148.247 47.1457 148.247 72.512C148.247 97.8783 168.861 118.503 194.214 118.503C219.568 118.503 240.182 97.8783 240.182 72.512C240.182 47.1457 219.568 26.5215 194.214 26.5215Z" fill="white"/>
<path d="M156.321 109.695C135.808 109.695 119.131 93.0101 119.131 72.4863C119.131 51.9624 135.808 35.2773 156.321 35.2773C176.835 35.2773 193.512 51.9624 193.512 72.4863C193.512 93.0101 176.835 109.695 156.321 109.695Z" fill="white"/>
<path d="M156.321 44.0847C172.02 44.0847 184.734 56.8055 184.734 72.512C184.734 88.2186 172.02 100.939 156.321 100.939C140.622 100.939 127.908 88.2186 127.908 72.512C127.908 56.8055 140.622 44.0847 156.321 44.0847ZM156.321 26.5215C130.967 26.5215 110.354 47.1457 110.354 72.512C110.354 97.8783 130.967 118.503 156.321 118.503C181.675 118.503 202.289 97.8783 202.289 72.512C202.289 47.1457 181.675 26.5215 156.321 26.5215Z" fill="white"/>
<path d="M125.426 158.369C101.251 158.369 92.4741 139.125 92.4741 126.178C92.4741 113.232 101.251 93.9873 125.426 93.9873C149.601 93.9873 158.379 113.232 158.379 126.178C158.379 139.125 149.601 158.369 125.426 158.369Z" fill="white"/>
<path d="M125.426 102.769C149.601 102.769 149.601 126.179 149.601 126.179C149.601 126.179 149.601 149.588 125.426 149.588C101.251 149.588 101.251 126.179 101.251 126.179C101.251 126.179 101.251 102.769 125.426 102.769ZM125.426 85.2061C94.8062 85.2061 83.6968 109.694 83.6968 126.179C83.6968 142.663 94.8062 167.151 125.426 167.151C156.046 167.151 167.156 142.663 167.156 126.179C167.156 109.694 156.046 85.2061 125.426 85.2061Z" fill="white"/>
<path d="M134.78 155.784C124.548 155.784 115.546 147.68 112.386 135.586C111.608 132.575 112.461 129.389 114.643 127.181L115.596 126.227L114.818 125.5C112.511 123.317 111.558 120.03 112.361 116.944C115.495 104.775 124.498 96.5957 134.805 96.5957C138.266 96.5957 141.626 97.499 144.836 99.3055C150.93 102.718 155.494 109.291 157.375 117.345C159.883 128.009 157.651 139.425 151.582 147.103C147.144 152.698 141.2 155.784 134.805 155.784H134.78Z" fill="white"/>
<path d="M134.78 105.378C136.661 105.378 138.592 105.88 140.498 106.959C144.385 109.142 147.495 113.759 148.799 119.354C152.159 133.605 144.485 147.003 134.78 147.003C128.586 147.003 122.994 141.533 120.862 133.379C123.27 130.945 125.702 128.487 128.11 126.053C125.677 123.744 123.27 121.461 120.837 119.153C122.944 110.923 128.561 105.403 134.78 105.403M134.78 87.8151C120.411 87.8151 107.972 98.6541 103.834 114.762C102.831 118.676 103.207 122.716 104.812 126.279C103.233 129.866 102.881 133.906 103.885 137.82C108.073 153.828 120.486 164.566 134.78 164.566C143.758 164.566 152.385 160.176 158.429 152.548C166.253 142.663 169.062 128.737 165.902 115.314C163.444 104.877 157.325 96.2455 149.1 91.6289C144.636 89.1198 139.696 87.79 134.78 87.79V87.8151Z" fill="white"/>
<path d="M189.374 158.369C165.199 158.369 156.422 139.125 156.422 126.178C156.422 113.232 165.199 93.9873 189.374 93.9873C213.549 93.9873 222.326 113.232 222.326 126.178C222.326 139.125 213.549 158.369 189.374 158.369Z" fill="white"/>
<path d="M189.374 102.769C213.549 102.769 213.549 126.179 213.549 126.179C213.549 126.179 213.549 149.588 189.374 149.588C165.199 149.588 165.199 126.179 165.199 126.179C165.199 126.179 165.199 102.769 189.374 102.769ZM189.374 85.2061C158.754 85.2061 147.645 109.694 147.645 126.179C147.645 142.663 158.754 167.151 189.374 167.151C219.994 167.151 231.104 142.663 231.104 126.179C231.104 109.694 219.994 85.2061 189.374 85.2061Z" fill="white"/>
<path d="M198.729 155.784C188.497 155.784 179.494 147.68 176.31 135.586C175.532 132.575 176.385 129.389 178.567 127.181L179.52 126.227L178.742 125.5C176.435 123.317 175.482 120.03 176.285 116.944C179.419 104.775 188.422 96.5957 198.729 96.5957C202.19 96.5957 205.575 97.499 208.76 99.3055C214.829 102.718 219.418 109.291 221.299 117.345C223.807 128.009 221.575 139.425 215.506 147.103C211.067 152.698 205.124 155.784 198.729 155.784Z" fill="white"/>
<path d="M198.729 105.378C200.61 105.378 202.541 105.88 204.447 106.959C208.334 109.142 211.444 113.759 212.748 119.354C216.108 133.605 208.434 147.003 198.729 147.003C192.535 147.003 186.943 141.533 184.811 133.379C187.218 130.945 189.651 128.487 192.058 126.053C189.626 123.744 187.218 121.461 184.786 119.153C186.892 110.923 192.51 105.403 198.729 105.403M198.729 87.8151C184.36 87.8151 171.921 98.6541 167.783 114.762C166.78 118.676 167.156 122.716 168.761 126.279C167.181 129.866 166.83 133.906 167.833 137.82C172.021 153.828 184.435 164.566 198.729 164.566C207.707 164.566 216.334 160.176 222.377 152.548C230.202 142.663 233.01 128.737 229.851 115.314C227.393 104.877 221.274 96.2455 213.049 91.6289C208.585 89.1198 203.644 87.79 198.729 87.79V87.8151Z" fill="white"/>
<path d="M157.4 180.851C139.67 180.851 125.225 166.424 125.225 148.66C125.225 130.896 139.645 116.469 157.4 116.469C175.155 116.469 189.575 130.896 189.575 148.66C189.575 166.424 175.155 180.851 157.4 180.851Z" fill="white"/>
<path d="M157.4 125.276C170.315 125.276 180.798 135.764 180.798 148.685C180.798 161.607 170.315 172.095 157.4 172.095C144.485 172.095 134.003 161.607 134.003 148.685C134.003 135.764 144.485 125.276 157.4 125.276ZM157.4 107.713C134.83 107.713 116.448 126.079 116.448 148.685C116.448 171.292 134.805 189.658 157.4 189.658C179.995 189.658 198.352 171.292 198.352 148.685C198.352 126.079 179.995 107.713 157.4 107.713Z" fill="white"/>
<path d="M176.635 108.889C169.463 108.889 163.62 103.043 163.62 95.8676C163.62 88.6917 169.463 82.8457 176.635 82.8457H202.139C209.311 82.8457 215.154 88.6917 215.154 95.8676C215.154 103.043 209.311 108.889 202.139 108.889H176.635Z" fill="white"/>
<path d="M202.139 91.6286C204.472 91.6286 206.378 93.5355 206.378 95.8689C206.378 98.2023 204.472 100.109 202.139 100.109H176.635C174.303 100.109 172.397 98.2023 172.397 95.8689C172.397 93.5355 174.303 91.6286 176.635 91.6286H202.139ZM202.139 74.0654H176.635C164.623 74.0654 154.843 83.8506 154.843 95.8689C154.843 107.887 164.623 117.672 176.635 117.672H202.139C214.152 117.672 223.932 107.887 223.932 95.8689C223.932 83.8506 214.152 74.0654 202.139 74.0654Z" fill="white"/>
<path d="M112.686 108.889C105.514 108.889 99.6709 103.043 99.6709 95.8676C99.6709 88.6917 105.514 82.8457 112.686 82.8457H138.19C145.363 82.8457 151.206 88.6917 151.206 95.8676C151.206 103.043 145.363 108.889 138.19 108.889H112.686Z" fill="white"/>
<path d="M138.191 91.6286C140.523 91.6286 142.429 93.5355 142.429 95.8689C142.429 98.2023 140.523 100.109 138.191 100.109H112.687C110.354 100.109 108.448 98.2023 108.448 95.8689C108.448 93.5355 110.354 91.6286 112.687 91.6286H138.191ZM138.191 74.0654H112.687C100.674 74.0654 90.894 83.8506 90.894 95.8689C90.894 107.887 100.674 117.672 112.687 117.672H138.191C150.203 117.672 159.983 107.887 159.983 95.8689C159.983 83.8506 150.203 74.0654 138.191 74.0654Z" fill="white"/>
<path d="M166.153 215.151L203.87 348.13C203.87 348.13 191.306 338.771 157.902 347.653C124.499 356.56 111.935 347.176 111.935 347.176L147.295 215.126H106.443V195.455H207.807V215.126H166.153V215.151Z" fill="#461100"/>
<path d="M277.423 372.417C324.544 345.621 272.533 297.397 233.537 216.406C232.559 214.373 230.929 212.717 228.923 211.689C224.76 209.606 219.719 210.61 216.685 214.122L214.052 217.158C212.522 218.915 211.644 221.123 211.544 223.431L207.782 316.993V365.291C207.782 365.718 207.782 366.145 207.857 366.571C208.284 369.657 210.792 381.073 224.986 381.073C241.412 381.073 258.64 383.106 277.423 372.417Z" fill="#F03800"/>
<path d="M217.864 361.728C222.879 360.925 220.999 352.921 219.419 349.007C225.162 346.799 238.352 339.247 245.249 326.626C251.518 316.465 219.419 228.473 219.419 220.846C219.419 214.749 224.108 209.48 226.466 207.623L193.589 205.089C181.601 209.655 158.379 219.215 161.514 220.846C164.649 222.476 170.893 347.476 167.784 354.602C164.649 361.728 166.229 368.853 166.229 368.853C180.322 370.886 211.62 362.756 217.864 361.728Z" fill="#FF5900"/>
<path d="M166.405 206.193C165.151 206.444 158.129 215.752 162.342 223.405C163.621 223.405 168.862 222.401 178.718 218.337C191.031 213.268 223.331 216.831 230.253 207.723C237.174 198.616 231.782 193.046 227.168 191.54C223.482 190.336 170.041 187.2 165.702 187.701V198.616C163.37 199.569 211.244 201.275 206.404 202.68C194.09 206.218 181.802 203.182 166.405 206.218V206.193Z" fill="#801E00"/>
<path d="M36.2754 372.417C-10.8458 345.621 41.1655 297.397 80.1615 216.406C81.1395 214.373 82.7696 212.717 84.7758 211.689C88.9387 209.606 93.9793 210.61 97.0138 214.122L99.6469 217.158C101.177 218.915 102.054 221.123 102.155 223.431L105.916 316.993V365.291C105.916 365.718 105.916 366.145 105.841 366.571C105.415 369.657 102.907 381.073 88.713 381.073C72.2871 381.073 55.0586 383.106 36.2754 372.417Z" fill="#F03800"/>
<path d="M95.8096 361.728C90.794 360.925 92.6749 352.921 94.2548 349.007C88.512 346.799 75.321 339.247 68.4247 326.626C62.1552 316.465 94.2548 228.473 94.2548 220.846C94.2548 214.749 89.5652 209.48 87.2079 207.623L120.085 205.089C132.072 209.655 155.294 219.215 152.159 220.846C149.025 222.476 142.78 347.476 145.89 354.602C149.025 361.728 147.445 368.853 147.445 368.853C133.351 370.886 102.054 362.756 95.8096 361.728Z" fill="#FF5900"/>
<path d="M107.321 202.656C102.481 201.276 150.354 199.545 148.022 198.591V187.677C143.658 187.175 90.2426 190.311 86.5561 191.516C81.9418 193.046 76.5501 198.591 83.4716 207.699C90.393 216.807 122.693 213.269 135.006 218.312C144.862 222.352 150.103 223.38 151.382 223.38C155.595 215.753 148.573 206.419 147.32 206.168C131.947 203.133 119.634 206.169 107.321 202.631V202.656Z" fill="#801E00"/>
<path d="M147.495 178.317H166.203V206.343C166.203 206.343 162.04 210.358 156.999 210.358C151.959 210.358 147.47 206.343 147.47 206.343V178.317H147.495Z" fill="#FF3C00"/>
<path d="M166.204 195.481L147.496 200.173V183.011H166.204V195.481Z" fill="#AC2900"/>
<path d="M226.415 146.327C239.337 146.327 249.813 135.847 249.813 122.918C249.813 109.989 239.337 99.5088 226.415 99.5088C213.493 99.5088 203.018 109.989 203.018 122.918C203.018 135.847 213.493 146.327 226.415 146.327Z" fill="url(#paint0_linear_328_158)"/>
<path d="M88.4117 146.327C101.334 146.327 111.809 135.847 111.809 122.918C111.809 109.989 101.334 99.5088 88.4117 99.5088C75.4896 99.5088 65.0142 109.989 65.0142 122.918C65.0142 135.847 75.4896 146.327 88.4117 146.327Z" fill="url(#paint1_linear_328_158)"/>
<path d="M156.323 191.565C194.217 191.565 224.936 160.83 224.936 122.918C224.936 85.0049 194.217 54.2705 156.323 54.2705C118.429 54.2705 87.71 85.0049 87.71 122.918C87.71 160.83 118.429 191.565 156.323 191.565Z" fill="url(#paint2_linear_328_158)"/>
<path d="M184.735 45.9928C184.735 61.6993 172.021 74.4201 156.322 74.4201C140.623 74.4201 127.909 61.6993 127.909 45.9928C127.909 30.2862 140.623 17.5654 156.322 17.5654C172.021 17.5654 184.735 30.2862 184.735 45.9928Z" fill="#761C00"/>
<path d="M146.868 72.5133C146.868 88.2198 134.153 100.941 118.455 100.941C102.756 100.941 90.0415 88.2198 90.0415 72.5133C90.0415 56.8067 102.756 44.0859 118.455 44.0859C134.153 44.0859 146.868 56.8067 146.868 72.5133Z" fill="#761C00"/>
<path d="M222.603 72.5123C222.603 88.2188 209.888 100.94 194.19 100.94C178.491 100.94 165.776 88.2188 165.776 72.5123C165.776 56.8057 178.491 44.085 194.19 44.085C209.888 44.085 222.603 56.8057 222.603 72.5123Z" fill="#761C00"/>
<path d="M184.735 72.5123C184.735 88.2188 172.021 100.94 156.322 100.94C140.623 100.94 127.909 88.2188 127.909 72.5123C127.909 56.8057 140.623 44.085 156.322 44.085C172.021 44.085 184.735 56.8057 184.735 72.5123Z" fill="#761C00"/>
<path d="M149.601 126.181C149.601 126.181 149.601 149.59 125.426 149.59C101.251 149.59 101.251 126.181 101.251 126.181C101.251 126.181 101.251 102.771 125.426 102.771C149.601 102.771 149.601 126.181 149.601 126.181Z" fill="white"/>
<path d="M128.109 126.03C125.676 123.722 123.269 121.438 120.836 119.13C123.595 108.417 132.222 102.295 140.497 106.961C144.384 109.144 147.494 113.761 148.798 119.356C152.159 133.607 144.485 147.005 134.78 147.005C128.585 147.005 122.993 141.536 120.862 133.381C123.269 130.948 125.702 128.489 128.109 126.055V126.03Z" fill="black"/>
<path d="M213.55 126.181C213.55 126.181 213.55 149.59 189.375 149.59C165.2 149.59 165.2 126.181 165.2 126.181C165.2 126.181 165.2 102.771 189.375 102.771C213.55 102.771 213.55 126.181 213.55 126.181Z" fill="white"/>
<path d="M192.058 126.03C189.626 123.722 187.218 121.438 184.786 119.13C187.544 108.417 196.171 102.295 204.447 106.961C208.334 109.144 211.443 113.761 212.747 119.356C216.108 133.607 208.434 147.005 198.729 147.005C192.535 147.005 186.942 141.536 184.811 133.381C187.218 130.948 189.651 128.489 192.058 126.055V126.03Z" fill="black"/>
<path d="M157.401 172.096C170.323 172.096 180.798 161.615 180.798 148.687C180.798 135.758 170.323 125.277 157.401 125.277C144.478 125.277 134.003 135.758 134.003 148.687C134.003 161.615 144.478 172.096 157.401 172.096Z" fill="#761C00"/>
<path d="M202.14 91.6309H176.636C174.295 91.6309 172.397 93.5293 172.397 95.8711C172.397 98.213 174.295 100.111 176.636 100.111H202.14C204.48 100.111 206.378 98.213 206.378 95.8711C206.378 93.5293 204.48 91.6309 202.14 91.6309Z" fill="black"/>
<path d="M138.191 91.6309H112.687C110.347 91.6309 108.449 93.5293 108.449 95.8711C108.449 98.213 110.347 100.111 112.687 100.111H138.191C140.532 100.111 142.43 98.213 142.43 95.8711C142.43 93.5293 140.532 91.6309 138.191 91.6309Z" fill="black"/>
<path d="M186.868 242.147V238.158C186.868 238.158 186.793 238.058 186.743 238.108C186.592 238.283 186.391 238.61 186.341 238.685C186.341 238.685 186.341 238.685 186.341 238.71V241.42C186.341 241.42 186.341 241.42 186.341 241.445C186.366 241.52 186.567 241.947 186.717 242.147C186.743 242.198 186.843 242.172 186.843 242.122L186.868 242.147Z" fill="#601600"/>
<path d="M195.72 238.158C195.72 238.158 195.795 238.058 195.846 238.108C195.996 238.283 196.197 238.61 196.247 238.685C196.247 238.685 196.247 238.685 196.247 238.71V241.42C196.247 241.42 196.247 241.42 196.247 241.445C196.222 241.52 196.021 241.947 195.871 242.147C195.846 242.198 195.745 242.172 195.745 242.122V238.133L195.72 238.158Z" fill="#601600"/>
<path d="M193.79 243.276C193.363 243.402 192.962 243.402 192.711 243.377C192.686 243.377 192.661 243.352 192.661 243.302V243.201C192.661 243.201 192.611 243.126 192.561 243.151C192.31 243.276 191.859 243.427 191.307 243.427C190.755 243.427 190.304 243.276 190.053 243.151C190.003 243.151 189.953 243.151 189.953 243.201V243.302C189.953 243.302 189.953 243.352 189.902 243.377C189.652 243.402 189.25 243.402 188.824 243.276C188.022 243.051 187.545 242.524 187.37 242.298C187.37 242.298 187.37 242.273 187.37 242.248V238.033C187.37 238.033 187.37 238.008 187.37 237.982C187.545 237.782 187.871 237.43 188.373 237.18C189 236.878 189.576 236.878 189.877 236.904C189.902 236.904 189.928 236.929 189.928 236.979V237.104C189.928 237.104 189.978 237.18 190.028 237.154C190.279 237.054 190.605 236.929 191.006 236.904C191.106 236.904 191.181 236.904 191.282 236.904C191.382 236.904 191.457 236.904 191.558 236.904C191.959 236.929 192.31 237.054 192.536 237.154C192.586 237.154 192.636 237.154 192.636 237.104V236.979C192.636 236.979 192.661 236.904 192.686 236.904C192.987 236.904 193.564 236.904 194.191 237.18C194.692 237.43 195.018 237.757 195.194 237.982C195.194 237.982 195.194 238.008 195.194 238.033V242.248C195.194 242.248 195.194 242.273 195.194 242.298C195.018 242.524 194.542 243.051 193.739 243.276H193.79ZM192.636 238.284C192.636 238.284 192.561 238.359 192.536 238.334C192.185 238.033 191.733 237.857 191.282 237.857C190.83 237.857 190.404 238.033 190.053 238.334C190.003 238.359 189.953 238.334 189.953 238.284V237.907C189.953 237.907 189.928 237.832 189.877 237.832C189.526 237.832 187.796 237.907 187.796 240.19C187.796 242.298 189.501 242.448 189.877 242.474C189.902 242.474 189.953 242.449 189.953 242.398V242.072C189.953 242.072 190.028 241.972 190.053 242.022C190.404 242.348 190.855 242.499 191.307 242.499C191.758 242.499 192.21 242.348 192.561 242.022C192.611 241.972 192.661 242.022 192.661 242.072V242.398C192.661 242.398 192.686 242.474 192.736 242.474C193.112 242.474 194.818 242.298 194.818 240.19C194.818 237.907 193.087 237.832 192.736 237.832C192.711 237.832 192.661 237.857 192.661 237.907V238.284H192.636Z" fill="#601600"/>
<defs>
<linearGradient id="paint0_linear_328_158" x1="226.415" y1="122.943" x2="249.813" y2="122.943" gradientUnits="userSpaceOnUse">
<stop stop-color="#FF3C00"/>
<stop offset="1" stop-color="#AF2A00"/>
</linearGradient>
<linearGradient id="paint1_linear_328_158" x1="88.4117" y1="122.943" x2="65.0142" y2="122.943" gradientUnits="userSpaceOnUse">
<stop stop-color="#FF3C00"/>
<stop offset="1" stop-color="#AF2A00"/>
</linearGradient>
<linearGradient id="paint2_linear_328_158" x1="156.323" y1="54.2705" x2="156.323" y2="191.59" gradientUnits="userSpaceOnUse">
<stop stop-color="#761C00"/>
<stop offset="0.7" stop-color="#FF3C00"/>
</linearGradient>
</defs>
</svg>
