<svg width="203" height="194" viewBox="0 0 203 194" fill="none" xmlns="http://www.w3.org/2000/svg">
<circle cx="22.787" cy="22.787" r="22.787" transform="matrix(-1 0 0 1 61.4307 82.0352)" fill="url(#paint0_linear_178_136)"/>
<circle cx="172.326" cy="104.822" r="22.787" fill="url(#paint1_linear_178_136)"/>
<circle cx="66.842" cy="66.842" r="66.842" transform="matrix(-1 0 0 1 172.327 31.9043)" fill="url(#paint2_linear_178_136)"/>
<path d="M82.699 22.787C82.699 35.372 92.9011 45.5741 105.486 45.5741C118.071 45.5741 128.273 35.372 128.273 22.787C128.273 10.2021 118.071 0 105.486 0C92.9011 0 82.699 10.2021 82.699 22.787Z" fill="#0D6000"/>
<path d="M113.082 44.0549C113.082 56.6399 123.284 66.842 135.869 66.842C148.454 66.842 158.656 56.6399 158.656 44.0549C158.656 31.47 148.454 21.2679 135.869 21.2679C123.284 21.2679 113.082 31.47 113.082 44.0549Z" fill="#0D6000"/>
<path d="M52.3163 44.0549C52.3163 56.6399 62.5184 66.842 75.1033 66.842C87.6883 66.842 97.8904 56.6399 97.8904 44.0549C97.8904 31.47 87.6883 21.2679 75.1033 21.2679C62.5184 21.2679 52.3163 31.47 52.3163 44.0549Z" fill="#0D6000"/>
<path d="M82.699 44.0549C82.699 56.6399 92.9011 66.842 105.486 66.842C118.071 66.842 128.273 56.6399 128.273 44.0549C128.273 31.47 118.071 21.2679 105.486 21.2679C92.9011 21.2679 82.699 31.47 82.699 44.0549Z" fill="#0D6000"/>
<path d="M143.466 118.488C143.466 118.488 143.466 140.516 105.487 140.516C67.5091 140.516 67.5091 118.488 67.5091 118.488" stroke="black" stroke-width="6" stroke-linecap="round"/>
<path d="M59.9121 104.817C59.9121 104.817 59.9121 91.1452 78.9013 91.1452C97.8905 91.1452 97.8905 104.817 97.8905 104.817" stroke="black" stroke-width="6" stroke-linecap="round"/>
<path d="M113.083 104.817C113.083 104.817 113.083 91.1452 132.072 91.1452C151.061 91.1452 151.061 104.817 151.061 104.817" stroke="black" stroke-width="6" stroke-linecap="round"/>
<circle cx="22.787" cy="22.787" r="22.787" transform="matrix(-1 0 0 1 128.276 100.262)" fill="#0D6000"/>
<path d="M34.1675 24.0539C33.1123 22.429 30.5943 23.1037 30.4929 25.0385L29.6781 40.5868C29.6327 41.452 29.0354 42.1897 28.1985 42.4139L13.1594 46.4436C11.288 46.9451 11.1515 49.5483 12.9603 50.2427L27.4958 55.8223C28.3047 56.1328 28.8216 56.9289 28.7763 57.7941L27.9614 73.3424C27.86 75.2772 30.2937 76.2114 31.513 74.7057L41.3112 62.6058C41.8565 61.9325 42.7734 61.6868 43.5823 61.9973L58.1177 67.577C59.9265 68.2713 61.567 66.2454 60.5118 64.6205L52.032 51.5628C51.5601 50.8361 51.6098 49.8882 52.1551 49.2149L61.9533 37.115C63.1726 35.6093 61.7528 33.4231 59.8814 33.9245L44.8423 37.9542C44.0054 38.1785 43.1192 37.8383 42.6473 37.1117L34.1675 24.0539Z" fill="#FBBC05"/>
<path d="M74.2104 45.3501C73.1551 43.7252 70.6372 44.3999 70.5358 46.3347L70.1632 53.4437C70.1178 54.309 69.5205 55.0466 68.6836 55.2709L61.8074 57.1134C59.9359 57.6148 59.7995 60.218 61.6083 60.9124L68.2542 63.4635C69.0631 63.774 69.5801 64.5701 69.5347 65.4353L69.1622 72.5444C69.0608 74.4792 71.4944 75.4134 72.7137 73.9077L77.1937 68.3753C77.739 67.702 78.6558 67.4563 79.4647 67.7668L86.1107 70.318C87.9194 71.0123 89.56 68.9864 88.5048 67.3615L84.6276 61.3912C84.1557 60.6646 84.2054 59.7167 84.7506 59.0433L89.2306 53.511C90.4499 52.0053 89.0301 49.819 87.1587 50.3205L80.2825 52.163C79.4456 52.3872 78.5594 52.047 78.0875 51.3204L74.2104 45.3501Z" fill="#FBBC05"/>
<path d="M133.454 154.728C132.399 153.103 129.881 153.778 129.78 155.713L129.407 162.822C129.362 163.687 128.765 164.425 127.928 164.649L121.051 166.491C119.18 166.993 119.044 169.596 120.852 170.29L127.498 172.841C128.307 173.152 128.824 173.948 128.779 174.813L128.406 181.922C128.305 183.857 130.739 184.791 131.958 183.286L136.438 177.753C136.983 177.08 137.9 176.834 138.709 177.145L145.355 179.696C147.164 180.39 148.804 178.364 147.749 176.739L143.872 170.769C143.4 170.042 143.45 169.095 143.995 168.421L148.475 162.889C149.694 161.383 148.274 159.197 146.403 159.698L139.527 161.541C138.69 161.765 137.804 161.425 137.332 160.698L133.454 154.728Z" fill="#FBBC05"/>
<path d="M171.433 63.5766C170.377 61.9518 167.859 62.6264 167.758 64.5612L167.385 71.6703C167.34 72.5355 166.743 73.2732 165.906 73.4974L159.03 75.3399C157.158 75.8414 157.022 78.4446 158.83 79.1389L165.476 81.6901C166.285 82.0006 166.802 82.7966 166.757 83.6619L166.384 90.7709C166.283 92.7057 168.717 93.6399 169.936 92.1342L174.416 86.6019C174.961 85.9285 175.878 85.6829 176.687 85.9934L183.333 88.5445C185.142 89.2388 186.782 87.213 185.727 85.5881L181.85 79.6178C181.378 78.8911 181.428 77.9432 181.973 77.2699L186.453 71.7375C187.672 70.2319 186.252 68.0456 184.381 68.547L177.505 70.3895C176.668 70.6138 175.782 70.2736 175.31 69.5469L171.433 63.5766Z" fill="#FBBC05"/>
<path d="M158.732 124.316C157.677 122.691 155.159 123.365 155.058 125.3L154.243 140.848C154.198 141.714 153.6 142.451 152.763 142.676L137.724 146.705C135.853 147.207 135.716 149.81 137.525 150.504L152.061 156.084C152.87 156.395 153.387 157.191 153.341 158.056L152.526 173.604C152.425 175.539 154.859 176.473 156.078 174.967L165.876 162.868C166.421 162.194 167.338 161.949 168.147 162.259L182.683 167.839C184.491 168.533 186.132 166.507 185.077 164.882L176.597 151.824C176.125 151.098 176.175 150.15 176.72 149.477L186.518 137.377C187.738 135.871 186.318 133.685 184.446 134.186L169.407 138.216C168.57 138.44 167.684 138.1 167.212 137.373L158.732 124.316Z" fill="#FBBC05"/>
<path d="M47.8355 128.871C46.7803 127.246 44.2623 127.921 44.1609 129.856L43.346 145.404C43.3007 146.269 42.7034 147.007 41.8664 147.231L26.8274 151.261C24.9559 151.762 24.8195 154.366 26.6283 155.06L41.1637 160.64C41.9726 160.95 42.4896 161.746 42.4442 162.612L41.6294 178.16C41.528 180.095 43.9617 181.029 45.1809 179.523L54.9792 167.423C55.5245 166.75 56.4413 166.504 57.2502 166.815L71.7857 172.394C73.5945 173.089 75.235 171.063 74.1798 169.438L65.7 156.38C65.2281 155.653 65.2777 154.706 65.823 154.032L75.6213 141.932C76.8406 140.427 75.4208 138.24 73.5493 138.742L58.5103 142.772C57.6734 142.996 56.7872 142.656 56.3153 141.929L47.8355 128.871Z" fill="#FBBC05"/>
<defs>
<linearGradient id="paint0_linear_178_136" x1="22.787" y1="22.787" x2="45.5741" y2="22.787" gradientUnits="userSpaceOnUse">
<stop stop-color="#34BE1F"/>
<stop offset="1" stop-color="#138A00"/>
</linearGradient>
<linearGradient id="paint1_linear_178_136" x1="172.326" y1="104.822" x2="195.113" y2="104.822" gradientUnits="userSpaceOnUse">
<stop stop-color="#34BE1F"/>
<stop offset="1" stop-color="#138A00"/>
</linearGradient>
<linearGradient id="paint2_linear_178_136" x1="66.842" y1="0" x2="66.842" y2="133.684" gradientUnits="userSpaceOnUse">
<stop stop-color="#1A5611"/>
<stop offset="0.525" stop-color="#39BC25"/>
</linearGradient>
</defs>
</svg>
