<svg width="1160" height="636" viewBox="0 0 1160 636" fill="none" xmlns="http://www.w3.org/2000/svg">
<path d="M-118.851 575.609V52.9023C-118.851 44.8982 -129.028 41.0701 -134.662 46.9862C-156.833 70.1286 -182.458 114.325 -187.91 124.07C-188.637 125.288 -189 126.68 -189 128.072C-189 273.539 -189 462.854 -189 483.387C-189 484.605 -188.818 485.823 -188.091 486.867C-183.003 497.133 -155.925 551.77 -135.389 580.481C-130.3 587.615 -118.851 584.135 -118.851 575.609Z" fill="black" fill-opacity="0.1"/>
<path d="M1089.85 52.9023C1089.85 44.8981 1100.03 41.0701 1105.66 46.9862C1127.83 70.1286 1153.46 114.325 1158.91 124.07C1159.64 125.288 1160 126.68 1160 128.072V483.387C1160 484.605 1159.82 485.823 1159.09 487.041C1154 497.307 1126.92 551.944 1106.39 580.655C1101.3 587.789 1089.85 584.309 1089.85 575.783V52.9023Z" fill="black" fill-opacity="0.1"/>
<path d="M824.522 726.818C765.095 743 712.938 742.13 677.5 738.476C672.957 737.954 669.504 734.3 669.504 729.776V715.681C669.504 709.417 662.962 705.067 656.964 707.677C621.345 722.816 561.01 742.826 485.227 743C409.445 743 349.291 722.816 313.672 707.677C307.675 705.067 301.132 709.417 301.132 715.681V729.776C301.132 734.126 297.861 737.954 293.136 738.476C257.698 742.13 205.541 743 146.296 726.818C37.8021 697.063 -26.7129 629.202 -51.9737 598.925C-53.2459 597.359 -53.7911 595.619 -53.7911 593.531V41.07C-53.7911 38.982 -53.0641 37.242 -51.792 35.502C-27.985 7.83545 16.5394 -36.3614 86.1429 -68.5521C172.102 -108.051 251.338 -108.921 292.773 -105.963C297.498 -105.615 301.314 -101.787 301.314 -97.2626V-79.1663C301.314 -72.9022 307.856 -68.5521 313.854 -71.1621C346.384 -84.9084 392.18 -99.8727 448.699 -104.397C461.239 -105.441 473.597 -105.789 485.409 -105.789C497.222 -105.789 509.579 -105.441 522.119 -104.397C578.456 -99.8727 624.616 -84.9084 657.146 -71.1621C663.143 -68.7261 669.686 -72.9022 669.686 -79.1663V-97.2626C669.686 -101.787 673.32 -105.615 678.227 -105.963C719.48 -108.921 798.898 -108.051 884.675 -68.5521C954.461 -36.3614 998.985 7.66144 1022.79 35.502C1024.06 37.068 1024.79 38.982 1024.79 41.07V593.531C1024.79 595.445 1024.25 597.359 1022.97 598.925C997.531 629.202 933.016 697.063 824.522 726.818ZM669.686 68.9106C669.686 76.2188 660.599 80.3948 654.784 75.5227C606.261 34.8059 545.744 13.4036 485.409 12.8816C425.074 13.5776 364.557 34.8059 316.216 75.5227C310.401 80.3948 301.314 76.3928 301.314 68.9106V19.4936C301.314 14.7955 297.498 10.7935 292.591 10.7935C243.887 9.92348 8.72491 21.4077 8.72491 321.042C8.72491 596.837 242.069 619.11 292.046 620.676C297.134 620.676 301.314 616.847 301.314 611.975L300.951 570.389C300.951 562.906 310.219 558.73 316.034 563.95C363.83 606.407 424.71 626.418 485.409 625.374C546.289 626.244 606.988 606.233 654.965 563.776C660.781 558.73 670.049 562.732 670.049 570.215L669.686 611.801C669.686 616.673 673.866 620.676 678.954 620.502C728.931 618.936 962.275 596.489 962.275 320.868C962.275 21.2337 727.295 9.74941 678.409 10.6194C673.502 10.6194 669.686 14.6215 669.686 19.3196V68.9106Z" fill="black" fill-opacity="0.1"/>
</svg>
