<svg width="25" height="15" viewBox="0 0 25 15" fill="none" xmlns="http://www.w3.org/2000/svg">
<path d="M1.74801 12.046V2.82181C1.74801 2.68056 1.56695 2.613 1.46672 2.7174C1.07228 3.1258 0.616395 3.90574 0.519399 4.0777C0.506466 4.0992 0.5 4.12376 0.5 4.14833C0.5 6.71539 0.5 10.0563 0.5 10.4186C0.5 10.4401 0.503233 10.4616 0.516166 10.48C0.606695 10.6612 1.08844 11.6254 1.45379 12.132C1.54432 12.2579 1.74801 12.1965 1.74801 12.046Z" fill="white"/>
<path d="M23.252 2.8218C23.252 2.68055 23.433 2.613 23.5333 2.7174C23.9277 3.1258 24.3836 3.90574 24.4806 4.0777C24.4935 4.0992 24.5 4.12376 24.5 4.14832V10.4186C24.5 10.4401 24.4968 10.4616 24.4838 10.4831C24.3933 10.6642 23.9116 11.6284 23.5462 12.1351C23.4557 12.261 23.252 12.1996 23.252 12.0491V2.8218Z" fill="white"/>
<path d="M18.5315 14.7144C17.4743 15 16.5463 14.9846 15.9159 14.9202C15.835 14.911 15.7736 14.8465 15.7736 14.7666V14.5179C15.7736 14.4074 15.6572 14.3306 15.5505 14.3767C14.9168 14.6438 13.8434 14.9969 12.4951 15C11.1469 15 10.0767 14.6438 9.44301 14.3767C9.33632 14.3306 9.21992 14.4074 9.21992 14.5179V14.7666C9.21992 14.8434 9.16173 14.911 9.07766 14.9202C8.44719 14.9846 7.51926 15 6.46524 14.7144C4.53503 14.1893 3.38724 12.9918 2.93783 12.4575C2.9152 12.4299 2.9055 12.3992 2.9055 12.3623V2.613C2.9055 2.57615 2.91843 2.54545 2.94106 2.51474C3.36461 2.02651 4.15674 1.24656 5.39506 0.678493C6.92436 -0.0185452 8.33403 -0.0338984 9.0712 0.018302C9.15526 0.0244436 9.22316 0.0919981 9.22316 0.171835V0.491182C9.22316 0.601726 9.33955 0.678493 9.44625 0.632433C10.025 0.389852 10.8398 0.125776 11.8453 0.0459394C12.0684 0.0275154 12.2882 0.0213737 12.4984 0.0213737C12.7085 0.0213737 12.9284 0.0275154 13.1515 0.0459394C14.1538 0.125776 14.975 0.389852 15.5538 0.632433C15.6604 0.675422 15.7768 0.601726 15.7768 0.491182V0.171835C15.7768 0.0919981 15.8415 0.0244436 15.9288 0.018302C16.6627 -0.0338984 18.0756 -0.0185452 19.6017 0.678493C20.8433 1.24656 21.6354 2.02344 22.0589 2.51474C22.0816 2.54238 22.0945 2.57615 22.0945 2.613V12.3623C22.0945 12.3961 22.0848 12.4299 22.0622 12.4575C21.6095 12.9918 20.4617 14.1893 18.5315 14.7144ZM15.7768 3.1043C15.7768 3.23327 15.6152 3.30697 15.5117 3.22099C14.6485 2.50246 13.5718 2.12477 12.4984 2.11556C11.425 2.12784 10.3483 2.50246 9.48828 3.22099C9.38482 3.30697 9.22316 3.23634 9.22316 3.1043V2.23224C9.22316 2.14933 9.15526 2.07871 9.06796 2.07871C8.20147 2.06336 4.01771 2.26602 4.01771 7.55368C4.01771 12.4207 8.16913 12.8137 9.05826 12.8413C9.14879 12.8413 9.22316 12.7738 9.22316 12.6878L9.21669 11.9539C9.21669 11.8219 9.38158 11.7482 9.48505 11.8403C10.3354 12.5895 11.4185 12.9427 12.4984 12.9242C13.5815 12.9396 14.6614 12.5865 15.515 11.8372C15.6184 11.7482 15.7833 11.8188 15.7833 11.9508L15.7768 12.6847C15.7768 12.7707 15.8512 12.8413 15.9417 12.8383C16.8309 12.8106 20.9823 12.4145 20.9823 7.5506C20.9823 2.26295 16.8018 2.06028 15.932 2.07564C15.8447 2.07564 15.7768 2.14626 15.7768 2.22917V3.1043Z" fill="white"/>
</svg>
