<svg width="72" height="47" viewBox="0 0 72 47" fill="none" xmlns="http://www.w3.org/2000/svg">
<path d="M3.74404 37.7442V8.84166C3.74404 8.39907 3.20086 8.1874 2.90018 8.51453C1.71683 9.79417 0.349185 12.238 0.0581975 12.7768C0.0193992 12.8441 0 12.9211 0 12.9981C0 21.0416 0 31.5096 0 32.6449C0 32.7123 0.00969958 32.7796 0.0484979 32.8373C0.320086 33.405 1.76532 36.4261 2.86138 38.0136C3.13297 38.4081 3.74404 38.2157 3.74404 37.7442Z" fill="#FF3C00"/>
<path d="M68.256 8.84166C68.256 8.39907 68.7991 8.1874 69.0998 8.51453C70.2832 9.79417 71.6508 12.238 71.9418 12.7768C71.9806 12.8441 72 12.9211 72 12.9981V32.6449C72 32.7123 71.9903 32.7796 71.9515 32.847C71.6799 33.4146 70.2347 36.4357 69.1386 38.0233C68.867 38.4177 68.256 38.2253 68.256 37.7539V8.84166Z" fill="#FF3C00"/>
<path d="M54.0946 46.1052C50.9228 47 48.139 46.9519 46.2476 46.7498C46.0051 46.721 45.8208 46.5189 45.8208 46.2688V45.4894C45.8208 45.1431 45.4716 44.9025 45.1516 45.0469C43.2504 45.8839 40.0302 46.9904 35.9854 47C31.9407 47 28.7302 45.8839 26.829 45.0469C26.509 44.9025 26.1598 45.1431 26.1598 45.4894V46.2688C26.1598 46.5093 25.9852 46.721 25.733 46.7498C23.8416 46.9519 21.0578 47 17.8957 46.1052C12.1051 44.46 8.66173 40.7076 7.31348 39.0335C7.24559 38.9469 7.21649 38.8507 7.21649 38.7352V8.1874C7.21649 8.07195 7.25529 7.97573 7.32318 7.87952C8.59383 6.34972 10.9702 3.9059 14.6852 2.12594C19.2731 -0.0581055 23.5021 -0.106216 25.7136 0.0573463C25.9658 0.0765915 26.1695 0.288261 26.1695 0.538414V1.53904C26.1695 1.88541 26.5187 2.12594 26.8387 1.98162C28.575 1.22153 31.0193 0.394096 34.0358 0.14394C34.7051 0.0862122 35.3647 0.0669708 35.9951 0.0669708C36.6256 0.0669708 37.2852 0.0862122 37.9545 0.14394C40.9613 0.394096 43.425 1.22153 45.1613 1.98162C45.4813 2.11632 45.8305 1.88541 45.8305 1.53904V0.538414C45.8305 0.288261 46.0245 0.0765915 46.2864 0.0573463C48.4882 -0.106216 52.7269 -0.0581055 57.3051 2.12594C61.0298 3.9059 63.4062 6.3401 64.6768 7.87952C64.7447 7.96611 64.7835 8.07195 64.7835 8.1874V38.7352C64.7835 38.8411 64.7544 38.9469 64.6865 39.0335C63.3286 40.7076 59.8852 44.46 54.0946 46.1052ZM45.8305 9.72682C45.8305 10.1309 45.3455 10.3618 45.0352 10.0924C42.4454 7.84103 39.2154 6.65761 35.9951 6.62875C32.7749 6.66723 29.5449 7.84103 26.9648 10.0924C26.6544 10.3618 26.1695 10.1405 26.1695 9.72682V6.99435C26.1695 6.73458 25.9658 6.51329 25.7039 6.51329C23.1044 6.46518 10.5531 7.10019 10.5531 23.6682C10.5531 38.9181 23.0074 40.1496 25.6748 40.2362C25.9464 40.2362 26.1695 40.0245 26.1695 39.7551L26.1501 37.4556C26.1501 37.0419 26.6448 36.811 26.9551 37.0996C29.5061 39.4472 32.7555 40.5537 35.9951 40.496C39.2445 40.5441 42.4842 39.4376 45.0449 37.09C45.3552 36.811 45.8499 37.0323 45.8499 37.446L45.8305 39.7455C45.8305 40.0149 46.0536 40.2362 46.3252 40.2266C48.9926 40.14 61.4468 38.8988 61.4468 23.6586C61.4468 7.09057 48.9053 6.45556 46.2961 6.50366C46.0342 6.50366 45.8305 6.72496 45.8305 6.98473V9.72682Z" fill="#FF3C00"/>
</svg>
