<svg width="211" height="203" viewBox="0 0 211 203" fill="none" xmlns="http://www.w3.org/2000/svg">
<path d="M171.757 96.8898C184.133 96.8898 194.178 106.994 194.178 119.442C194.178 131.89 184.133 141.994 171.757 141.994C159.38 141.994 149.335 131.89 149.335 119.442C149.335 106.994 159.38 96.8898 171.757 96.8898ZM171.757 79.9697C150.128 79.9697 132.513 97.6633 132.513 119.442C132.513 141.221 150.104 158.914 171.757 158.914C193.409 158.914 211.001 141.221 211.001 119.442C211.001 97.6633 193.409 79.9697 171.757 79.9697Z" fill="white"/>
<path d="M39.244 96.8898C51.6203 96.8898 61.6656 106.994 61.6656 119.442C61.6656 131.89 51.6203 141.994 39.244 141.994C26.8676 141.994 16.8223 131.89 16.8223 119.442C16.8223 106.994 26.8676 96.8898 39.244 96.8898ZM39.244 79.9697C17.6153 79.9697 0 97.6633 0 119.442C0 141.221 17.5913 158.914 39.244 158.914C60.8966 158.914 78.4879 141.221 78.4879 119.442C78.4879 97.6633 60.8966 79.9697 39.244 79.9697Z" fill="white"/>
<path d="M104.48 52.9067C141.013 52.9067 170.631 82.6967 170.631 119.442C170.631 156.187 141.013 185.977 104.48 185.977C67.9475 185.977 38.3297 156.187 38.3297 119.442C38.3297 82.6967 67.9475 52.9067 104.48 52.9067ZM104.48 35.8838C58.6632 35.8838 21.4053 73.3585 21.4053 119.442C21.4053 165.525 58.6632 203 104.48 203C150.297 203 187.555 165.525 187.555 119.442C187.555 73.3585 150.297 35.8838 104.48 35.8838Z" fill="white"/>
<path d="M104.48 17.0316C119.623 17.0316 131.888 29.3674 131.888 44.5985C131.888 59.8296 119.623 72.1654 104.48 72.1654C89.3372 72.1654 77.0728 59.8296 77.0728 44.5985C77.0728 29.3674 89.3372 17.0316 104.48 17.0316ZM104.48 0C80.024 0 60.1396 20 60.1396 44.5985C60.1396 69.197 80.024 89.197 104.48 89.197C128.936 89.197 148.821 69.197 148.821 44.5985C148.821 20 128.936 0 104.48 0Z" fill="white"/>
<path d="M67.7849 42.6634C82.928 42.6634 95.1924 54.9992 95.1924 70.2303C95.1924 85.4614 82.928 97.7972 67.7849 97.7972C52.6419 97.7972 40.3775 85.4614 40.3775 70.2303C40.3775 54.9992 52.6419 42.6634 67.7849 42.6634ZM67.7849 25.6318C43.3287 25.6318 23.4443 45.6318 23.4443 70.2303C23.4443 94.8288 43.3287 114.829 67.7849 114.829C92.2412 114.829 112.125 94.8288 112.125 70.2303C112.125 45.6318 92.2412 25.6318 67.7849 25.6318Z" fill="white"/>
<path d="M141.177 42.6634C156.32 42.6634 168.584 54.9992 168.584 70.2303C168.584 85.4614 156.32 97.7972 141.177 97.7972C126.033 97.7972 113.769 85.4614 113.769 70.2303C113.769 54.9992 126.033 42.6634 141.177 42.6634ZM141.177 25.6318C116.72 25.6318 96.8359 45.6318 96.8359 70.2303C96.8359 94.8288 116.72 114.829 141.177 114.829C165.633 114.829 185.517 94.8288 185.517 70.2303C185.517 45.6318 165.633 25.6318 141.177 25.6318Z" fill="white"/>
<path d="M171.246 141.485C183.631 141.485 193.672 131.386 193.672 118.929C193.672 106.472 183.631 96.3735 171.246 96.3735C158.861 96.3735 148.821 106.472 148.821 118.929C148.821 131.386 158.861 141.485 171.246 141.485Z" fill="url(#paint0_linear_423_611)"/>
<path d="M39.7542 141.485C52.1393 141.485 62.1793 131.386 62.1793 118.929C62.1793 106.472 52.1393 96.3735 39.7542 96.3735C27.3692 96.3735 17.3291 106.472 17.3291 118.929C17.3291 131.386 27.3692 141.485 39.7542 141.485Z" fill="url(#paint1_linear_423_611)"/>
<path d="M104.481 185.571C140.791 185.571 170.227 155.964 170.227 119.442C170.227 82.9203 140.791 53.3135 104.481 53.3135C68.17 53.3135 38.7344 82.9203 38.7344 119.442C38.7344 155.964 68.17 185.571 104.481 185.571Z" fill="url(#paint2_linear_423_611)"/>
<path d="M131.493 45.1115C131.493 60.4061 119.405 72.7933 104.481 72.7933C89.5562 72.7933 77.4688 60.4061 77.4688 45.1115C77.4688 29.8169 89.5562 17.4297 104.481 17.4297C119.405 17.4297 131.493 29.8169 131.493 45.1115Z" fill="#00327D"/>
<path d="M95.8159 70.7419C95.8159 86.0365 83.5004 98.4237 68.2942 98.4237C53.088 98.4237 40.7725 86.0365 40.7725 70.7419C40.7725 55.4472 53.088 43.0601 68.2942 43.0601C83.5004 43.0601 95.8159 55.4472 95.8159 70.7419Z" fill="#00327D"/>
<path d="M168.189 70.7419C168.189 86.0365 155.873 98.4237 140.667 98.4237C125.461 98.4237 113.146 86.0365 113.146 70.7419C113.146 55.4472 125.461 43.0601 140.667 43.0601C155.873 43.0601 168.189 55.4472 168.189 70.7419Z" fill="#00327D"/>
<path d="M131.493 70.7419C131.493 86.0365 119.405 98.4237 104.481 98.4237C89.5562 98.4237 77.4688 86.0365 77.4688 70.7419C77.4688 55.4472 89.5562 43.0601 104.481 43.0601C119.405 43.0601 131.493 55.4472 131.493 70.7419Z" fill="#00327D"/>
<path d="M97.8547 122.005C97.8547 122.005 97.8547 144.561 74.4103 144.561C50.9658 144.561 50.9658 122.005 50.9658 122.005C50.9658 122.005 50.9658 99.4497 74.4103 99.4497C97.8547 99.4497 97.8547 122.005 97.8547 122.005Z" fill="white"/>
<path d="M77.2914 122.362C74.9639 120.145 72.6605 117.952 70.333 115.735C72.9724 105.444 81.2264 99.5637 89.1446 104.046C92.8637 106.143 95.839 110.577 97.0867 115.952C100.302 129.641 92.9597 142.51 83.6739 142.51C77.7473 142.51 72.3965 137.256 70.357 129.424C72.6605 127.086 74.9879 124.724 77.2914 122.387V122.362Z" fill="black"/>
<path d="M160.034 122.005C160.034 122.005 160.034 144.561 136.08 144.561C112.126 144.561 112.126 122.005 112.126 122.005C112.126 122.005 112.126 99.4497 136.08 99.4497C160.034 99.4497 160.034 122.005 160.034 122.005Z" fill="white"/>
<path d="M138.709 122.362C136.296 120.145 133.907 117.952 131.493 115.735C134.23 105.444 142.79 99.5637 151.001 104.046C154.858 106.143 157.944 110.577 159.238 115.952C162.572 129.641 154.958 142.51 145.328 142.51C139.182 142.51 133.633 137.256 131.518 129.424C133.907 127.086 136.32 124.724 138.709 122.387V122.362Z" fill="black"/>
<path d="M104.991 166.091C117.376 166.091 127.416 155.992 127.416 143.535C127.416 131.078 117.376 120.979 104.991 120.979C92.6055 120.979 82.5654 131.078 82.5654 143.535C82.5654 155.992 92.6055 166.091 104.991 166.091Z" fill="#00327D"/>
<path d="M147.938 88.1719H124.221C122.045 88.1719 120.28 90.2375 120.28 92.7855C120.28 95.3335 122.045 97.3991 124.221 97.3991H147.938C150.115 97.3991 151.879 95.3335 151.879 92.7855C151.879 90.2375 150.115 88.1719 147.938 88.1719Z" fill="black"/>
<path d="M86.778 88.1719H63.0612C60.8846 88.1719 59.1201 90.2375 59.1201 92.7855C59.1201 95.3335 60.8846 97.3991 63.0612 97.3991H86.778C88.9546 97.3991 90.7192 95.3335 90.7192 92.7855C90.7192 90.2375 88.9546 88.1719 86.778 88.1719Z" fill="black"/>
<defs>
<linearGradient id="paint0_linear_423_611" x1="171.246" y1="118.953" x2="193.672" y2="118.953" gradientUnits="userSpaceOnUse">
<stop stop-color="#0066FF"/>
<stop offset="1" stop-color="#004BBB"/>
</linearGradient>
<linearGradient id="paint1_linear_423_611" x1="39.7542" y1="118.953" x2="17.3291" y2="118.953" gradientUnits="userSpaceOnUse">
<stop stop-color="#0066FF"/>
<stop offset="1" stop-color="#004BBB"/>
</linearGradient>
<linearGradient id="paint2_linear_423_611" x1="104.481" y1="53.3135" x2="104.481" y2="185.595" gradientUnits="userSpaceOnUse">
<stop stop-color="#003D99"/>
<stop offset="1" stop-color="#0066FF"/>
</linearGradient>
</defs>
</svg>
