<svg width="294" height="281" viewBox="0 0 294 281" fill="none" xmlns="http://www.w3.org/2000/svg">
<path d="M145.587 24.257C166.569 24.257 183.562 41.2584 183.562 62.2503C183.562 83.2421 166.569 100.243 145.587 100.243C124.606 100.243 107.613 83.2421 107.613 62.2503C107.613 41.2584 124.606 24.257 145.587 24.257ZM145.587 0.783691C111.702 0.783691 84.1514 28.3481 84.1514 62.2503C84.1514 96.1524 111.702 123.717 145.587 123.717C179.473 123.717 207.023 96.1524 207.023 62.2503C207.023 28.3481 179.473 0.783691 145.587 0.783691Z" fill="white"/>
<path d="M94.9769 59.7033C115.958 59.7033 132.951 76.7047 132.951 97.6965C132.951 118.688 115.958 135.69 94.9769 135.69C73.9955 135.69 57.0026 118.688 57.0026 97.6965C57.0026 76.7047 73.9955 59.7033 94.9769 59.7033ZM94.9769 36.23C61.0916 36.23 33.541 63.7944 33.541 97.6965C33.541 131.599 61.0916 159.163 94.9769 159.163C128.862 159.163 156.413 131.599 156.413 97.6965C156.413 63.7944 128.862 36.23 94.9769 36.23Z" fill="white"/>
<path d="M196.23 59.7033C217.211 59.7033 234.204 76.7047 234.204 97.6965C234.204 118.688 217.211 135.69 196.23 135.69C175.248 135.69 158.256 118.688 158.256 97.6965C158.256 76.7047 175.248 59.7033 196.23 59.7033ZM196.23 36.23C162.345 36.23 134.794 63.7944 134.794 97.6965C134.794 131.599 162.345 159.163 196.23 159.163C230.115 159.163 257.666 131.599 257.666 97.6965C257.666 63.7944 230.115 36.23 196.23 36.23Z" fill="white"/>
<path d="M145.589 73.3141C196.232 73.3141 237.29 114.392 237.29 165.061C237.29 215.73 196.232 256.808 145.589 256.808C94.9452 256.808 53.8874 215.73 53.8874 165.061C53.8874 114.392 94.9452 73.3141 145.589 73.3141ZM145.589 49.8408C82.0748 49.8408 30.4258 101.516 30.4258 165.061C30.4258 228.607 82.0748 280.282 145.589 280.282C209.103 280.282 260.752 228.607 260.752 165.061C260.752 101.516 209.103 49.8408 145.589 49.8408Z" fill="white"/>
<path d="M54.8244 133.809C72.0854 133.809 86.0953 147.826 86.0953 165.096C86.0953 182.365 72.0854 196.382 54.8244 196.382C37.5633 196.382 23.5534 182.365 23.5534 165.096C23.5534 147.826 37.5633 133.809 54.8244 133.809ZM54.8244 110.336C24.6594 110.336 0.0917969 134.882 0.0917969 165.096C0.0917969 195.309 24.6259 219.856 54.8244 219.856C85.0228 219.856 109.557 195.309 109.557 165.096C109.557 134.882 85.0228 110.336 54.8244 110.336Z" fill="white"/>
<path d="M239.267 133.809C256.528 133.809 270.538 147.826 270.538 165.096C270.538 182.365 256.528 196.382 239.267 196.382C222.006 196.382 207.996 182.365 207.996 165.096C207.996 147.826 222.006 133.809 239.267 133.809ZM239.267 110.336C209.102 110.336 184.534 134.882 184.534 165.096C184.534 195.309 209.068 219.856 239.267 219.856C269.465 219.856 293.999 195.309 293.999 165.096C293.999 134.882 269.465 110.336 239.267 110.336Z" fill="white"/>
<path d="M54.8247 196.351C72.0951 196.351 86.0956 182.343 86.0956 165.064C86.0956 147.785 72.0951 133.777 54.8247 133.777C37.5542 133.777 23.5537 147.785 23.5537 165.064C23.5537 182.343 37.5542 196.351 54.8247 196.351Z" fill="url(#paint0_linear_423_558)"/>
<path d="M239.271 196.573C256.541 196.573 270.542 182.565 270.542 165.286C270.542 148.007 256.541 134 239.271 134C222 134 208 148.007 208 165.286C208 182.565 222 196.573 239.271 196.573Z" fill="url(#paint1_linear_423_558)"/>
<path d="M121.356 123.249H87.2698C84.1415 123.249 81.6055 125.786 81.6055 128.916C81.6055 132.046 84.1415 134.583 87.2698 134.583H121.356C124.484 134.583 127.02 132.046 127.02 128.916C127.02 125.786 124.484 123.249 121.356 123.249Z" fill="black"/>
<path d="M206.823 123.249H172.737C169.608 123.249 167.072 125.786 167.072 128.916C167.072 132.046 169.608 134.583 172.737 134.583H206.823C209.951 134.583 212.487 132.046 212.487 128.916C212.487 125.786 209.951 123.249 206.823 123.249Z" fill="black"/>
<path d="M145.253 256.449C195.898 256.449 236.954 215.373 236.954 164.702C236.954 114.032 195.898 72.9551 145.253 72.9551C94.6079 72.9551 53.5518 114.032 53.5518 164.702C53.5518 215.373 94.6079 256.449 145.253 256.449Z" fill="url(#paint2_linear_423_558)"/>
<path d="M136.605 169.425C136.605 169.425 136.605 200.711 104.295 200.711C71.9853 200.711 71.9854 169.425 71.9854 169.425C71.9854 169.425 71.9853 138.138 104.295 138.138C136.605 138.138 136.605 169.425 136.605 169.425Z" fill="white"/>
<path d="M222.074 169.425C222.074 169.425 222.074 200.711 189.764 200.711C157.454 200.711 157.454 169.425 157.454 169.425C157.454 169.425 157.454 138.138 189.764 138.138C222.074 138.138 222.074 169.425 222.074 169.425Z" fill="white"/>
<path d="M192.623 169.223C189.372 166.138 186.154 163.086 182.903 160.001C186.59 145.682 198.12 137.5 209.18 143.737C214.375 146.655 218.531 152.825 220.274 160.303C224.766 179.35 214.509 197.256 201.539 197.256C193.26 197.256 185.786 189.946 182.937 179.048C186.154 175.795 189.406 172.509 192.623 169.256V169.223Z" fill="black"/>
<path d="M107.88 169.223C104.629 166.138 101.411 163.086 98.1602 160.001C101.847 145.682 113.377 137.5 124.437 143.737C129.632 146.655 133.788 152.825 135.531 160.303C140.022 179.35 129.766 197.256 116.795 197.256C108.517 197.256 101.043 189.946 98.1937 179.048C101.411 175.795 104.662 172.509 107.88 169.256V169.223Z" fill="black"/>
<path d="M147.029 230.791C164.299 230.791 178.3 216.783 178.3 199.504C178.3 182.225 164.299 168.218 147.029 168.218C129.758 168.218 115.758 182.225 115.758 199.504C115.758 216.783 129.758 230.791 147.029 230.791Z" fill="#A60C00"/>
<path d="M183.561 62.2525C183.561 83.2444 166.568 100.246 145.587 100.246C124.605 100.246 107.612 83.2444 107.612 62.2525C107.612 41.2607 124.605 24.2593 145.587 24.2593C166.568 24.2593 183.561 41.2607 183.561 62.2525Z" fill="#A60C00"/>
<path d="M183.561 97.6973C183.561 118.689 166.568 135.691 145.587 135.691C124.605 135.691 107.612 118.689 107.612 97.6973C107.612 76.7055 124.605 59.7041 145.587 59.7041C166.568 59.7041 183.561 76.7055 183.561 97.6973Z" fill="#A60C00"/>
<path d="M234.171 97.6973C234.171 118.689 217.178 135.691 196.197 135.691C175.216 135.691 158.223 118.689 158.223 97.6973C158.223 76.7055 175.216 59.7041 196.197 59.7041C217.178 59.7041 234.171 76.7055 234.171 97.6973Z" fill="#A60C00"/>
<path d="M132.951 97.6988C132.951 118.691 115.958 135.692 94.9762 135.692C73.9949 135.692 57.002 118.691 57.002 97.6988C57.002 76.707 73.9949 59.7056 94.9762 59.7056C115.958 59.7056 132.951 76.707 132.951 97.6988Z" fill="#A60C00"/>
<defs>
<linearGradient id="paint0_linear_423_558" x1="54.8247" y1="165.097" x2="23.5537" y2="165.097" gradientUnits="userSpaceOnUse">
<stop stop-color="#F33829"/>
<stop offset="1" stop-color="#CC0F00"/>
</linearGradient>
<linearGradient id="paint1_linear_423_558" x1="239.271" y1="165.32" x2="270.542" y2="165.32" gradientUnits="userSpaceOnUse">
<stop stop-color="#F33829"/>
<stop offset="1" stop-color="#CC0F00"/>
</linearGradient>
<linearGradient id="paint2_linear_423_558" x1="145.253" y1="72.9551" x2="145.253" y2="256.483" gradientUnits="userSpaceOnUse">
<stop stop-color="#A60C00"/>
<stop offset="0.7" stop-color="#F33829"/>
</linearGradient>
</defs>
</svg>
