<svg width="117" height="18" viewBox="0 0 117 18" fill="none" xmlns="http://www.w3.org/2000/svg">
<path d="M108.654 11.7913L113.237 7.20801" stroke="#41A131" stroke-linecap="round" stroke-linejoin="round"/>
<path d="M108.654 7.20801H113.237V11.7913" stroke="#41A131" stroke-linecap="round" stroke-linejoin="round"/>
<path d="M8.49426 2.92705C8.79361 2.00574 10.097 2.00574 10.3964 2.92705L11.2414 5.52786C11.3753 5.93989 11.7593 6.21885 12.1925 6.21885H14.9271C15.8959 6.21885 16.2986 7.45846 15.5149 8.02786L13.3025 9.63525C12.9521 9.8899 12.8054 10.3413 12.9393 10.7533L13.7843 13.3541C14.0837 14.2754 13.0292 15.0415 12.2455 14.4721L10.0331 12.8647C9.68261 12.6101 9.20801 12.6101 8.85753 12.8647L6.64514 14.4721C5.86143 15.0415 4.80695 14.2754 5.1063 13.3541L5.95136 10.7533C6.08523 10.3413 5.93857 9.8899 5.58809 9.63525L3.3757 8.02787C2.59199 7.45846 2.99476 6.21885 3.96349 6.21885H6.69814C7.13137 6.21885 7.51533 5.93989 7.6492 5.52786L8.49426 2.92705Z" fill="url(#paint0_linear_123_97)"/>
<path d="M26.4943 2.92705C26.7936 2.00574 28.097 2.00574 28.3964 2.92705L29.2414 5.52786C29.3753 5.93989 29.7593 6.21885 30.1925 6.21885H32.9271C33.8959 6.21885 34.2986 7.45846 33.5149 8.02786L31.3025 9.63525C30.9521 9.8899 30.8054 10.3413 30.9393 10.7533L31.7843 13.3541C32.0837 14.2754 31.0292 15.0415 30.2455 14.4721L28.0331 12.8647C27.6826 12.6101 27.208 12.6101 26.8575 12.8647L24.6451 14.4721C23.8614 15.0415 22.8069 14.2754 23.1063 13.3541L23.9514 10.7533C24.0852 10.3413 23.9386 9.8899 23.5881 9.63525L21.3757 8.02787C20.592 7.45846 20.9948 6.21885 21.9635 6.21885H24.6981C25.1314 6.21885 25.5153 5.93989 25.6492 5.52786L26.4943 2.92705Z" fill="url(#paint1_linear_123_97)"/>
<path d="M44.4943 2.92705C44.7936 2.00574 46.097 2.00574 46.3964 2.92705L47.2414 5.52786C47.3753 5.93989 47.7593 6.21885 48.1925 6.21885H50.9271C51.8959 6.21885 52.2986 7.45846 51.5149 8.02786L49.3025 9.63525C48.9521 9.8899 48.8054 10.3413 48.9393 10.7533L49.7843 13.3541C50.0837 14.2754 49.0292 15.0415 48.2455 14.4721L46.0331 12.8647C45.6826 12.6101 45.208 12.6101 44.8575 12.8647L42.6451 14.4721C41.8614 15.0415 40.8069 14.2754 41.1063 13.3541L41.9514 10.7533C42.0852 10.3413 41.9386 9.8899 41.5881 9.63525L39.3757 8.02787C38.592 7.45846 38.9948 6.21885 39.9635 6.21885H42.6981C43.1314 6.21885 43.5153 5.93989 43.6492 5.52786L44.4943 2.92705Z" fill="url(#paint2_linear_123_97)"/>
<path d="M62.4943 2.92705C62.7936 2.00574 64.097 2.00574 64.3964 2.92705L65.2414 5.52786C65.3753 5.93989 65.7593 6.21885 66.1925 6.21885H68.9271C69.8959 6.21885 70.2986 7.45846 69.5149 8.02786L67.3025 9.63525C66.9521 9.8899 66.8054 10.3413 66.9393 10.7533L67.7843 13.3541C68.0837 14.2754 67.0292 15.0415 66.2455 14.4721L64.0331 12.8647C63.6826 12.6101 63.208 12.6101 62.8575 12.8647L60.6451 14.4721C59.8614 15.0415 58.8069 14.2754 59.1063 13.3541L59.9514 10.7533C60.0852 10.3413 59.9386 9.8899 59.5881 9.63525L57.3757 8.02787C56.592 7.45846 56.9948 6.21885 57.9635 6.21885H60.6981C61.1314 6.21885 61.5153 5.93989 61.6492 5.52786L62.4943 2.92705Z" fill="url(#paint3_linear_123_97)"/>
<path d="M80.4943 2.92705C80.7936 2.00574 82.097 2.00574 82.3964 2.92705L83.2414 5.52786C83.3753 5.93989 83.7593 6.21885 84.1925 6.21885H86.9271C87.8959 6.21885 88.2986 7.45846 87.5149 8.02786L85.3025 9.63525C84.9521 9.8899 84.8054 10.3413 84.9393 10.7533L85.7843 13.3541C86.0837 14.2754 85.0292 15.0415 84.2455 14.4721L82.0331 12.8647C81.6826 12.6101 81.208 12.6101 80.8575 12.8647L78.6451 14.4721C77.8614 15.0415 76.8069 14.2754 77.1063 13.3541L77.9514 10.7533C78.0852 10.3413 77.9386 9.8899 77.5881 9.63525L75.3757 8.02787C74.592 7.45846 74.9948 6.21885 75.9635 6.21885H78.6981C79.1314 6.21885 79.5153 5.93989 79.6492 5.52786L80.4943 2.92705Z" fill="#D9D9D9"/>
<defs>
<linearGradient id="paint0_linear_123_97" x1="6.94531" y1="5.5" x2="13.4453" y2="14.5" gradientUnits="userSpaceOnUse">
<stop stop-color="#41A131"/>
<stop offset="1" stop-color="#146107"/>
</linearGradient>
<linearGradient id="paint1_linear_123_97" x1="24.9453" y1="5.5" x2="31.4453" y2="14.5" gradientUnits="userSpaceOnUse">
<stop stop-color="#41A131"/>
<stop offset="1" stop-color="#146107"/>
</linearGradient>
<linearGradient id="paint2_linear_123_97" x1="42.9453" y1="5.5" x2="49.4453" y2="14.5" gradientUnits="userSpaceOnUse">
<stop stop-color="#41A131"/>
<stop offset="1" stop-color="#146107"/>
</linearGradient>
<linearGradient id="paint3_linear_123_97" x1="56.9453" y1="9" x2="65.9453" y2="9" gradientUnits="userSpaceOnUse">
<stop stop-color="#146107"/>
<stop offset="1" stop-color="#D9D9D9"/>
</linearGradient>
</defs>
</svg>
