<svg width="185" height="176" viewBox="0 0 185 176" fill="none" xmlns="http://www.w3.org/2000/svg">
<path d="M92.0405 14.732C105.182 14.732 115.826 25.381 115.826 38.5295C115.826 51.6779 105.182 62.3269 92.0405 62.3269C78.8986 62.3269 68.255 51.6779 68.255 38.5295C68.255 25.381 78.8986 14.732 92.0405 14.732ZM92.0405 0.0292969C70.8162 0.0292969 53.5596 17.2945 53.5596 38.5295C53.5596 59.7644 70.8162 77.0296 92.0405 77.0296C113.265 77.0296 130.521 59.7644 130.521 38.5295C130.521 17.2945 113.265 0.0292969 92.0405 0.0292969Z" fill="white"/>
<path d="M60.3403 36.9342C73.4822 36.9342 84.1259 47.5832 84.1259 60.7316C84.1259 73.8801 73.4822 84.529 60.3403 84.529C47.1984 84.529 36.5548 73.8801 36.5548 60.7316C36.5548 47.5832 47.1984 36.9342 60.3403 36.9342ZM60.3403 22.2314C39.116 22.2314 21.8594 39.4967 21.8594 60.7316C21.8594 81.9666 39.116 99.2318 60.3403 99.2318C81.5647 99.2318 98.8213 81.9666 98.8213 60.7316C98.8213 39.4967 81.5647 22.2314 60.3403 22.2314Z" fill="white"/>
<path d="M123.761 36.9342C136.903 36.9342 147.547 47.5832 147.547 60.7316C147.547 73.8801 136.903 84.529 123.761 84.529C110.619 84.529 99.9757 73.8801 99.9757 60.7316C99.9757 47.5832 110.619 36.9342 123.761 36.9342ZM123.761 22.2314C102.537 22.2314 85.2803 39.4967 85.2803 60.7316C85.2803 81.9666 102.537 99.2318 123.761 99.2318C144.986 99.2318 162.242 81.9666 162.242 60.7316C162.242 39.4967 144.986 22.2314 123.761 22.2314Z" fill="white"/>
<path d="M92.0416 45.4596C123.763 45.4596 149.48 71.1894 149.48 102.926C149.48 134.663 123.763 160.393 92.0416 160.393C60.3205 160.393 34.6036 134.663 34.6036 102.926C34.6036 71.1894 60.3205 45.4596 92.0416 45.4596ZM92.0416 30.7568C52.2591 30.7568 19.9082 63.1239 19.9082 102.926C19.9082 142.729 52.2591 175.096 92.0416 175.096C131.824 175.096 164.175 142.729 164.175 102.926C164.175 63.1239 131.824 30.7568 92.0416 30.7568Z" fill="white"/>
<path d="M35.1905 83.3512C46.0021 83.3512 54.7773 92.1308 54.7773 102.948C54.7773 113.765 46.0021 122.544 35.1905 122.544C24.3788 122.544 15.6036 113.765 15.6036 102.948C15.6036 92.1308 24.3788 83.3512 35.1905 83.3512ZM35.1905 68.6484C16.2964 68.6484 0.908203 84.0233 0.908203 102.948C0.908203 121.872 16.2754 137.247 35.1905 137.247C54.1055 137.247 69.4727 121.872 69.4727 102.948C69.4727 84.0233 54.1055 68.6484 35.1905 68.6484Z" fill="white"/>
<path d="M150.718 83.3512C161.529 83.3512 170.305 92.1308 170.305 102.948C170.305 113.765 161.529 122.544 150.718 122.544C139.906 122.544 131.131 113.765 131.131 102.948C131.131 92.1308 139.906 83.3512 150.718 83.3512ZM150.718 68.6484C131.824 68.6484 116.436 84.0233 116.436 102.948C116.436 121.872 131.803 137.247 150.718 137.247C169.633 137.247 185 121.872 185 102.948C185 84.0233 169.633 68.6484 150.718 68.6484Z" fill="white"/>
<path d="M35.1904 122.524C46.0079 122.524 54.7772 113.751 54.7772 102.928C54.7772 92.1048 46.0079 83.3311 35.1904 83.3311C24.3729 83.3311 15.6035 92.1048 15.6035 102.928C15.6035 113.751 24.3729 122.524 35.1904 122.524Z" fill="url(#paint0_linear_328_1217)"/>
<path d="M150.718 122.524C161.535 122.524 170.305 113.751 170.305 102.928C170.305 92.1048 161.535 83.3311 150.718 83.3311C139.9 83.3311 131.131 92.1048 131.131 102.928C131.131 113.751 139.9 122.524 150.718 122.524Z" fill="url(#paint1_linear_328_1217)"/>
<path d="M76.863 76.7363H55.5127C53.5533 76.7363 51.9648 78.3256 51.9648 80.286C51.9648 82.2464 53.5533 83.8357 55.5127 83.8357H76.863C78.8225 83.8357 80.4109 82.2464 80.4109 80.286C80.4109 78.3256 78.8225 76.7363 76.863 76.7363Z" fill="black"/>
<path d="M130.396 76.7363H109.046C107.086 76.7363 105.498 78.3256 105.498 80.286C105.498 82.2464 107.086 83.8357 109.046 83.8357H130.396C132.356 83.8357 133.944 82.2464 133.944 80.286C133.944 78.3256 132.356 76.7363 130.396 76.7363Z" fill="black"/>
<path d="M91.8316 160.168C123.554 160.168 149.27 134.439 149.27 102.701C149.27 70.9631 123.554 45.2344 91.8316 45.2344C60.1094 45.2344 34.3936 70.9631 34.3936 102.701C34.3936 134.439 60.1094 160.168 91.8316 160.168Z" fill="url(#paint2_linear_328_1217)"/>
<path d="M86.4148 105.659C86.4148 105.659 86.4148 125.256 66.1771 125.256C45.9395 125.256 45.9395 105.659 45.9395 105.659C45.9395 105.659 45.9395 86.0625 66.1771 86.0625C86.4148 86.0625 86.4148 105.659 86.4148 105.659Z" fill="white"/>
<path d="M139.949 105.659C139.949 105.659 139.949 125.256 119.711 125.256C99.4736 125.256 99.4736 105.659 99.4736 105.659C99.4736 105.659 99.4736 86.0625 119.711 86.0625C139.949 86.0625 139.949 105.659 139.949 105.659Z" fill="white"/>
<path d="M121.502 105.533C119.466 103.6 117.45 101.689 115.414 99.7565C117.723 90.7879 124.945 85.6629 131.873 89.5696C135.127 91.397 137.73 95.2617 138.822 99.9456C141.635 111.876 135.211 123.092 127.086 123.092C121.901 123.092 117.22 118.513 115.435 111.687C117.45 109.649 119.487 107.591 121.502 105.554V105.533Z" fill="black"/>
<path d="M68.4221 105.533C66.3857 103.6 64.3703 101.689 62.334 99.7565C64.6433 90.7879 71.865 85.6629 78.7928 89.5696C82.0468 91.397 84.65 95.2617 85.7416 99.9456C88.5548 111.876 82.1308 123.092 74.0063 123.092C68.8209 123.092 64.1394 118.513 62.355 111.687C64.3703 109.649 66.4067 107.591 68.4221 105.554V105.533Z" fill="black"/>
<path d="M92.9433 144.097C103.761 144.097 112.53 135.323 112.53 124.5C112.53 113.677 103.761 104.903 92.9433 104.903C82.1258 104.903 73.3564 113.677 73.3564 124.5C73.3564 135.323 82.1258 144.097 92.9433 144.097Z" fill="#0D6000"/>
<path d="M115.826 38.5308C115.826 51.6793 105.182 62.3283 92.0404 62.3283C78.8986 62.3283 68.2549 51.6793 68.2549 38.5308C68.2549 25.3824 78.8986 14.7334 92.0404 14.7334C105.182 14.7334 115.826 25.3824 115.826 38.5308Z" fill="#0D6000"/>
<path d="M115.826 60.732C115.826 73.8804 105.182 84.5294 92.0404 84.5294C78.8986 84.5294 68.2549 73.8804 68.2549 60.732C68.2549 47.5836 78.8986 36.9346 92.0404 36.9346C105.182 36.9346 115.826 47.5836 115.826 60.732Z" fill="#0D6000"/>
<path d="M147.526 60.732C147.526 73.8804 136.883 84.5294 123.741 84.5294C110.599 84.5294 99.9551 73.8804 99.9551 60.732C99.9551 47.5836 110.599 36.9346 123.741 36.9346C136.883 36.9346 147.526 47.5836 147.526 60.732Z" fill="#0D6000"/>
<path d="M84.1258 60.733C84.1258 73.8814 73.4821 84.5304 60.3402 84.5304C47.1984 84.5304 36.5547 73.8814 36.5547 60.733C36.5547 47.5845 47.1984 36.9355 60.3402 36.9355C73.4821 36.9355 84.1258 47.5845 84.1258 60.733Z" fill="#0D6000"/>
<defs>
<linearGradient id="paint0_linear_328_1217" x1="35.1904" y1="102.949" x2="15.6035" y2="102.949" gradientUnits="userSpaceOnUse">
<stop stop-color="#37C122"/>
<stop offset="1" stop-color="#16A100"/>
</linearGradient>
<linearGradient id="paint1_linear_328_1217" x1="150.718" y1="102.949" x2="170.305" y2="102.949" gradientUnits="userSpaceOnUse">
<stop stop-color="#37C122"/>
<stop offset="1" stop-color="#16A100"/>
</linearGradient>
<linearGradient id="paint2_linear_328_1217" x1="91.8316" y1="45.2344" x2="91.8316" y2="160.189" gradientUnits="userSpaceOnUse">
<stop stop-color="#0D6000"/>
<stop offset="0.7" stop-color="#39BC25"/>
</linearGradient>
</defs>
</svg>
