<svg width="220" height="210" viewBox="0 0 220 210" fill="none" xmlns="http://www.w3.org/2000/svg">
<path d="M108.862 17.5632C124.561 17.5632 137.275 30.284 137.275 45.9905C137.275 61.6971 124.561 74.4179 108.862 74.4179C93.1634 74.4179 80.449 61.6971 80.449 45.9905C80.449 30.284 93.1634 17.5632 108.862 17.5632ZM108.862 0C83.5085 0 62.8945 20.6242 62.8945 45.9905C62.8945 71.3568 83.5085 91.9811 108.862 91.9811C134.216 91.9811 154.83 71.3568 154.83 45.9905C154.83 20.6242 134.216 0 108.862 0Z" fill="white"/>
<path d="M70.9949 44.0847C86.6936 44.0847 99.4081 56.8055 99.4081 72.512C99.4081 88.2186 86.6936 100.939 70.9949 100.939C55.2962 100.939 42.5818 88.2186 42.5818 72.512C42.5818 56.8055 55.2962 44.0847 70.9949 44.0847ZM70.9949 26.5215C45.6413 26.5215 25.0273 47.1457 25.0273 72.512C25.0273 97.8783 45.6413 118.503 70.9949 118.503C96.3486 118.503 116.963 97.8783 116.963 72.512C116.963 47.1457 96.3486 26.5215 70.9949 26.5215Z" fill="white"/>
<path d="M146.755 44.0847C162.453 44.0847 175.168 56.8055 175.168 72.512C175.168 88.2186 162.453 100.939 146.755 100.939C131.056 100.939 118.342 88.2186 118.342 72.512C118.342 56.8055 131.056 44.0847 146.755 44.0847ZM146.755 26.5215C121.401 26.5215 100.787 47.1457 100.787 72.512C100.787 97.8783 121.401 118.503 146.755 118.503C172.108 118.503 192.722 97.8783 192.722 72.512C192.722 47.1457 172.108 26.5215 146.755 26.5215Z" fill="white"/>
<path d="M108.864 54.2693C146.756 54.2693 177.476 85.0049 177.476 122.916C177.476 160.828 146.756 191.563 108.864 191.563C70.971 191.563 40.2507 160.828 40.2507 122.916C40.2507 85.0049 70.971 54.2693 108.864 54.2693ZM108.864 36.7061C61.3412 36.7061 22.6963 75.3702 22.6963 122.916C22.6963 170.462 61.3412 209.127 108.864 209.127C156.386 209.127 195.031 170.462 195.031 122.916C195.031 75.3702 156.386 36.7061 108.864 36.7061Z" fill="white"/>
<path d="M40.952 99.532C53.8671 99.532 64.3496 110.02 64.3496 122.941C64.3496 135.863 53.8671 146.35 40.952 146.35C28.037 146.35 17.5545 135.863 17.5545 122.941C17.5545 110.02 28.037 99.532 40.952 99.532ZM40.952 81.9688C18.382 81.9688 0 100.335 0 122.941C0 145.548 18.3569 163.914 40.952 163.914C63.5471 163.914 81.9041 145.548 81.9041 122.941C81.9041 100.335 63.5471 81.9688 40.952 81.9688Z" fill="white"/>
<path d="M178.956 99.532C191.871 99.532 202.354 110.02 202.354 122.941C202.354 135.863 191.871 146.35 178.956 146.35C166.041 146.35 155.558 135.863 155.558 122.941C155.558 110.02 166.041 99.532 178.956 99.532ZM178.956 81.9688C156.386 81.9688 138.004 100.335 138.004 122.941C138.004 145.548 156.361 163.914 178.956 163.914C201.551 163.914 219.908 145.548 219.908 122.941C219.908 100.335 201.551 81.9688 178.956 81.9688Z" fill="white"/>
<path d="M40.9523 146.327C53.8744 146.327 64.3498 135.847 64.3498 122.918C64.3498 109.989 53.8744 99.5088 40.9523 99.5088C28.0301 99.5088 17.5547 109.989 17.5547 122.918C17.5547 135.847 28.0301 146.327 40.9523 146.327Z" fill="url(#paint0_linear_328_954)"/>
<path d="M178.956 146.327C191.878 146.327 202.354 135.847 202.354 122.918C202.354 109.989 191.878 99.5088 178.956 99.5088C166.034 99.5088 155.559 109.989 155.559 122.918C155.559 135.847 166.034 146.327 178.956 146.327Z" fill="url(#paint1_linear_328_954)"/>
<path d="M90.7325 91.6309H65.2284C62.8877 91.6309 60.9902 93.5293 60.9902 95.8711C60.9902 98.213 62.8877 100.111 65.2284 100.111H90.7325C93.0732 100.111 94.9706 98.213 94.9706 95.8711C94.9706 93.5293 93.0732 91.6309 90.7325 91.6309Z" fill="black"/>
<path d="M154.681 91.6309H129.177C126.836 91.6309 124.938 93.5293 124.938 95.8711C124.938 98.213 126.836 100.111 129.177 100.111H154.681C157.021 100.111 158.919 98.213 158.919 95.8711C158.919 93.5293 157.021 91.6309 154.681 91.6309Z" fill="black"/>
<path d="M108.613 191.294C146.507 191.294 177.226 160.56 177.226 122.647C177.226 84.7344 146.507 54 108.613 54C70.719 54 40 84.7344 40 122.647C40 160.56 70.719 191.294 108.613 191.294Z" fill="url(#paint2_linear_328_954)"/>
<path d="M102.142 126.181C102.142 126.181 102.142 149.59 77.967 149.59C53.792 149.59 53.792 126.181 53.792 126.181C53.792 126.181 53.792 102.771 77.967 102.771C102.142 102.771 102.142 126.181 102.142 126.181Z" fill="white"/>
<path d="M166.091 126.181C166.091 126.181 166.091 149.59 141.916 149.59C117.741 149.59 117.741 126.181 117.741 126.181C117.741 126.181 117.741 102.771 141.916 102.771C166.091 102.771 166.091 126.181 166.091 126.181Z" fill="white"/>
<path d="M80.6495 126.03C78.217 123.722 75.8095 121.438 73.377 119.13C76.1355 108.417 84.7623 102.295 93.0379 106.961C96.925 109.144 100.035 113.761 101.339 119.356C104.699 133.607 97.0253 147.005 87.3202 147.005C81.126 147.005 75.5336 141.536 73.402 133.381C75.8095 130.948 78.242 128.489 80.6495 126.055V126.03Z" fill="black"/>
<path d="M144.599 126.03C142.166 123.722 139.759 121.438 137.326 119.13C140.085 108.417 148.711 102.295 156.987 106.961C160.874 109.144 163.984 113.761 165.288 119.356C168.648 133.607 160.975 147.005 151.269 147.005C145.075 147.005 139.483 141.536 137.351 133.381C139.759 130.948 142.191 128.489 144.599 126.055V126.03Z" fill="black"/>
<path d="M109.942 172.096C122.864 172.096 133.339 161.615 133.339 148.687C133.339 135.758 122.864 125.277 109.942 125.277C97.0194 125.277 86.5439 135.758 86.5439 148.687C86.5439 161.615 97.0194 172.096 109.942 172.096Z" fill="#761C00"/>
<path d="M137.275 45.9928C137.275 61.6993 124.561 74.4201 108.862 74.4201C93.1637 74.4201 80.4492 61.6993 80.4492 45.9928C80.4492 30.2862 93.1637 17.5654 108.862 17.5654C124.561 17.5654 137.275 30.2862 137.275 45.9928Z" fill="#761C00"/>
<path d="M137.275 72.5123C137.275 88.2188 124.561 100.94 108.862 100.94C93.1637 100.94 80.4492 88.2188 80.4492 72.5123C80.4492 56.8057 93.1637 44.085 108.862 44.085C124.561 44.085 137.275 56.8057 137.275 72.5123Z" fill="#761C00"/>
<path d="M175.144 72.5123C175.144 88.2188 162.429 100.94 146.731 100.94C131.032 100.94 118.317 88.2188 118.317 72.5123C118.317 56.8057 131.032 44.085 146.731 44.085C162.429 44.085 175.144 56.8057 175.144 72.5123Z" fill="#761C00"/>
<path d="M99.4083 72.5133C99.4083 88.2198 86.6939 100.941 70.9952 100.941C55.2965 100.941 42.582 88.2198 42.582 72.5133C42.582 56.8067 55.2965 44.0859 70.9952 44.0859C86.6939 44.0859 99.4083 56.8067 99.4083 72.5133Z" fill="#761C00"/>
<defs>
<linearGradient id="paint0_linear_328_954" x1="40.9523" y1="122.943" x2="17.5547" y2="122.943" gradientUnits="userSpaceOnUse">
<stop stop-color="#FF3C00"/>
<stop offset="1" stop-color="#AF2A00"/>
</linearGradient>
<linearGradient id="paint1_linear_328_954" x1="178.956" y1="122.943" x2="202.354" y2="122.943" gradientUnits="userSpaceOnUse">
<stop stop-color="#FF3C00"/>
<stop offset="1" stop-color="#AF2A00"/>
</linearGradient>
<linearGradient id="paint2_linear_328_954" x1="108.613" y1="54" x2="108.613" y2="191.319" gradientUnits="userSpaceOnUse">
<stop stop-color="#761C00"/>
<stop offset="0.7" stop-color="#FF3C00"/>
</linearGradient>
</defs>
</svg>
